<svg id="svg" version="1.1" xmlns="http://www.w3.org/2000/svg" xmlns:xlink="http://www.w3.org/1999/xlink" width="400" height="400" viewBox="0, 0, 400,400"><g id="svgg"><path id="path0" d="M137.600 200.000 L 137.600 341.200 200.000 341.200 L 262.400 341.200 262.400 200.000 L 262.400 58.800 200.000 58.800 L 137.600 58.800 137.600 200.000 " stroke="none" fill="#fcfcfc" fill-rule="evenodd"></path><path id="path1" d="M262.400 200.000 L 262.400 341.202 325.100 341.101 L 387.800 341.000 387.800 200.000 L 387.800 59.000 325.100 58.899 L 262.400 58.798 262.400 200.000 " stroke="none" fill="#dc0424" fill-rule="evenodd"></path><path id="path2" d="M12.000 200.000 L 12.000 341.200 74.600 341.200 L 137.200 341.200 137.200 200.000 L 137.200 58.800 74.600 58.800 L 12.000 58.800 12.000 200.000 " stroke="none" fill="#0454b4" fill-rule="evenodd"></path><path id="path3" d="M137.398 200.000 C 137.398 277.770,137.444 309.585,137.500 270.700 C 137.556 231.815,137.556 168.185,137.500 129.300 C 137.444 90.415,137.398 122.230,137.398 200.000 " stroke="none" fill="#34ac90" fill-rule="evenodd"></path><path id="path4" d="" stroke="none" fill="#b4bc100" fill-rule="evenodd"></path><path id="path5" d="" stroke="none" fill="#b4bc100" fill-rule="evenodd"></path><path id="path6" d="" stroke="none" fill="#b4bc100" fill-rule="evenodd"></path><path id="path7" d="" stroke="none" fill="#b4bc100" fill-rule="evenodd"></path><path id="path8" d="" stroke="none" fill="#b4bc100" fill-rule="evenodd"></path></g></svg>