<svg id="svg" version="1.1" xmlns="http://www.w3.org/2000/svg" xmlns:xlink="http://www.w3.org/1999/xlink" width="400" height="400" viewBox="0, 0, 400,400"><g id="svgg"><path id="path0" d="M0.800 66.346 C 0.800 66.536,2.645 67.712,4.900 68.960 C 7.155 70.208,9.720 71.641,10.600 72.146 C 11.480 72.650,13.190 73.606,14.400 74.272 C 15.610 74.938,17.320 75.897,18.200 76.403 C 19.080 76.909,20.700 77.808,21.800 78.400 C 22.900 78.992,24.520 79.891,25.400 80.398 C 26.280 80.905,28.170 81.945,29.600 82.710 C 31.030 83.474,33.550 84.860,35.200 85.791 C 36.850 86.721,39.010 87.933,40.000 88.485 C 40.990 89.036,42.520 89.900,43.400 90.405 C 44.280 90.910,45.900 91.808,47.000 92.401 C 48.100 92.993,49.855 93.955,50.900 94.539 C 53.019 95.722,55.453 97.075,58.300 98.653 C 66.123 102.986,72.015 106.260,73.200 106.931 C 73.970 107.367,75.500 108.208,76.600 108.800 C 77.700 109.391,79.410 110.356,80.400 110.943 C 81.390 111.529,82.875 112.320,83.700 112.699 C 84.525 113.078,85.200 113.526,85.200 113.694 C 85.200 113.862,85.365 114.000,85.567 114.000 C 85.768 114.000,88.674 115.530,92.023 117.400 C 95.373 119.270,98.168 120.800,98.235 120.800 C 98.302 120.800,99.402 121.406,100.679 122.146 C 101.955 122.886,103.810 123.940,104.800 124.489 C 105.790 125.038,107.320 125.900,108.200 126.405 C 109.080 126.910,110.700 127.808,111.800 128.401 C 113.743 129.447,115.579 130.464,119.500 132.668 C 120.545 133.255,123.020 134.624,125.000 135.711 C 126.980 136.797,129.410 138.144,130.400 138.704 C 131.390 139.264,133.100 140.207,134.200 140.799 C 135.300 141.392,136.920 142.292,137.800 142.800 C 138.680 143.308,140.300 144.208,141.400 144.800 C 142.500 145.392,144.075 146.264,144.900 146.738 C 147.610 148.295,148.959 149.050,152.200 150.819 C 155.613 152.683,156.511 153.356,156.114 153.752 C 155.978 153.889,146.069 154.000,134.094 154.000 L 112.321 154.000 109.660 152.541 C 108.197 151.739,105.142 150.029,102.870 148.741 C 100.599 147.454,98.673 146.400,98.591 146.400 C 98.510 146.400,97.398 145.794,96.121 145.054 C 93.358 143.452,90.536 141.874,87.800 140.401 C 86.700 139.808,85.080 138.910,84.200 138.405 C 83.320 137.900,81.835 137.062,80.900 136.543 C 79.965 136.025,78.345 135.124,77.300 134.542 C 76.255 133.960,74.410 132.946,73.200 132.289 C 71.990 131.631,70.460 130.780,69.800 130.396 C 68.232 129.485,65.104 127.749,62.600 126.401 C 61.500 125.808,59.880 124.908,59.000 124.400 C 58.120 123.892,56.500 122.992,55.400 122.399 C 52.664 120.926,49.842 119.348,47.079 117.746 C 45.802 117.006,44.700 116.400,44.630 116.400 C 44.560 116.400,42.116 115.050,39.200 113.400 C 36.284 111.750,33.839 110.400,33.766 110.400 C 33.694 110.400,32.682 109.832,31.518 109.138 C 30.353 108.444,28.500 107.392,27.400 106.799 C 26.300 106.207,24.590 105.270,23.600 104.716 C 22.610 104.163,20.720 103.120,19.400 102.397 C 18.080 101.675,14.030 99.429,10.400 97.406 C 6.770 95.384,2.945 93.254,1.900 92.672 L -0.000 91.616 -0.000 97.008 C -0.000 99.982,0.163 102.400,0.364 102.400 C 0.564 102.400,1.959 103.093,3.464 103.941 C 6.191 105.476,8.383 106.702,11.800 108.600 C 12.790 109.150,14.410 110.050,15.400 110.600 C 16.390 111.150,18.055 112.075,19.100 112.656 C 22.663 114.636,24.399 115.599,26.300 116.653 C 33.152 120.448,40.007 124.254,41.200 124.926 C 41.970 125.359,43.365 126.138,44.300 126.657 C 47.915 128.663,49.662 129.635,51.300 130.551 C 53.652 131.866,63.638 137.388,66.797 139.119 C 68.228 139.904,70.263 141.053,71.318 141.673 C 72.372 142.293,73.308 142.800,73.396 142.800 C 73.485 142.800,74.602 143.406,75.879 144.146 C 77.155 144.886,79.100 145.984,80.200 146.587 C 89.917 151.908,92.163 153.304,91.720 153.747 C 91.581 153.886,70.887 154.000,45.733 154.000 L 0.000 154.000 0.000 164.400 L 0.000 174.800 87.400 174.800 L 174.800 174.800 174.800 120.400 L 174.800 66.000 165.800 66.000 L 156.800 66.000 156.800 97.976 C 156.800 118.324,156.658 130.040,156.410 130.194 C 156.064 130.407,153.903 129.366,150.200 127.201 C 149.540 126.815,148.145 126.027,147.100 125.449 C 146.055 124.872,144.390 123.950,143.400 123.400 C 142.410 122.850,140.790 121.950,139.800 121.400 C 138.810 120.850,137.235 119.972,136.300 119.449 C 134.006 118.166,123.933 112.600,121.200 111.105 C 119.990 110.444,118.460 109.586,117.800 109.201 C 117.140 108.815,115.790 108.052,114.800 107.506 C 113.810 106.960,112.280 106.100,111.400 105.595 C 110.520 105.090,108.900 104.195,107.800 103.608 C 106.126 102.713,95.550 96.850,89.300 93.352 C 88.365 92.828,86.790 91.950,85.800 91.400 C 84.810 90.850,83.190 89.950,82.200 89.400 C 81.210 88.850,79.590 87.950,78.600 87.400 C 77.610 86.850,75.990 85.950,75.000 85.400 C 70.244 82.758,69.047 82.093,64.200 79.404 C 61.340 77.817,58.190 76.067,57.200 75.515 C 53.500 73.452,51.547 72.371,49.700 71.361 C 43.989 68.239,42.000 66.988,42.000 66.520 C 42.000 66.100,38.044 66.000,21.400 66.000 C 10.070 66.000,0.800 66.156,0.800 66.346 M225.200 120.400 L 225.200 174.800 312.600 174.800 L 400.000 174.800 400.000 164.400 L 400.000 154.000 364.967 154.000 C 337.215 154.000,329.968 153.897,330.099 153.503 C 330.261 153.016,333.794 150.871,339.939 147.529 C 341.623 146.613,343.630 145.509,344.400 145.075 C 345.170 144.642,346.565 143.862,347.500 143.343 C 348.435 142.825,349.965 141.975,350.900 141.457 C 351.835 140.938,353.230 140.157,354.000 139.721 C 354.770 139.286,358.280 137.340,361.800 135.397 C 365.320 133.454,368.830 131.509,369.600 131.075 C 370.370 130.642,371.765 129.862,372.700 129.343 C 373.635 128.825,375.210 127.950,376.200 127.400 C 377.190 126.850,378.810 125.950,379.800 125.400 C 380.790 124.850,382.455 123.924,383.500 123.342 C 384.545 122.760,386.390 121.736,387.600 121.066 C 388.810 120.397,391.421 118.938,393.402 117.824 C 395.383 116.711,397.678 115.444,398.502 115.009 L 400.000 114.218 400.000 102.916 L 400.000 91.614 398.700 92.339 C 397.985 92.738,394.520 94.654,391.000 96.597 C 387.480 98.540,383.970 100.488,383.200 100.927 C 382.430 101.365,380.900 102.208,379.800 102.800 C 378.700 103.392,377.080 104.292,376.200 104.800 C 375.320 105.308,373.700 106.208,372.600 106.800 C 371.500 107.392,369.880 108.290,369.000 108.795 C 366.448 110.259,356.828 115.598,350.800 118.895 C 349.590 119.556,348.060 120.414,347.400 120.799 C 346.740 121.185,345.345 121.973,344.300 122.551 C 343.255 123.128,341.635 124.025,340.700 124.545 C 339.765 125.064,337.920 126.080,336.600 126.802 C 335.280 127.524,332.850 128.872,331.200 129.796 C 329.550 130.721,326.400 132.477,324.200 133.697 C 322.000 134.918,319.480 136.323,318.600 136.820 C 317.720 137.317,316.100 138.208,315.000 138.800 C 313.900 139.392,312.280 140.292,311.400 140.800 C 310.520 141.308,308.900 142.210,307.800 142.805 C 306.700 143.399,302.740 145.593,299.000 147.681 C 295.260 149.768,291.154 152.044,289.875 152.738 L 287.551 154.000 265.742 154.000 C 248.476 154.000,243.967 153.896,244.095 153.500 C 244.242 153.042,247.111 151.273,252.800 148.131 C 254.010 147.463,255.810 146.465,256.800 145.914 C 257.790 145.363,259.410 144.462,260.400 143.912 C 261.390 143.362,263.010 142.462,264.000 141.912 C 264.990 141.362,266.610 140.465,267.600 139.920 C 270.291 138.438,283.933 130.853,286.000 129.690 C 286.990 129.133,288.700 128.193,289.800 127.601 C 290.900 127.008,292.520 126.108,293.400 125.600 C 294.280 125.092,295.900 124.190,297.000 123.595 C 298.100 123.001,302.060 120.807,305.800 118.719 C 309.540 116.632,313.590 114.383,314.800 113.721 C 316.010 113.059,317.720 112.103,318.600 111.597 C 319.480 111.091,321.100 110.192,322.200 109.600 C 323.300 109.008,324.875 108.136,325.700 107.662 C 328.124 106.269,329.454 105.527,336.200 101.803 C 339.720 99.860,343.230 97.914,344.000 97.479 C 344.770 97.043,346.165 96.262,347.100 95.743 C 348.035 95.225,349.610 94.350,350.600 93.800 C 351.590 93.250,353.210 92.350,354.200 91.800 C 355.190 91.250,356.765 90.375,357.700 89.857 C 358.635 89.338,360.030 88.558,360.800 88.123 C 361.570 87.689,364.270 86.198,366.800 84.810 C 372.806 81.515,374.272 80.701,376.200 79.595 C 377.080 79.090,378.700 78.192,379.800 77.600 C 380.900 77.008,382.475 76.136,383.300 75.662 C 385.782 74.236,387.251 73.417,390.440 71.682 C 401.489 65.672,401.526 66.000,389.791 66.000 L 380.315 66.000 379.529 67.000 C 379.096 67.550,378.589 68.000,378.403 68.000 C 378.216 68.000,376.505 68.900,374.600 70.000 C 372.695 71.100,371.069 72.000,370.986 72.000 C 370.903 72.000,369.972 72.507,368.918 73.127 C 367.863 73.747,365.828 74.896,364.397 75.681 C 361.238 77.412,351.252 82.934,348.900 84.249 C 347.965 84.772,346.390 85.650,345.400 86.200 C 344.410 86.750,342.790 87.650,341.800 88.200 C 340.810 88.750,339.190 89.650,338.200 90.200 C 337.210 90.750,335.590 91.650,334.600 92.200 C 331.401 93.977,329.063 95.282,326.000 97.001 C 324.350 97.926,321.920 99.275,320.600 99.997 C 319.280 100.720,317.435 101.736,316.500 102.255 C 315.565 102.775,313.990 103.650,313.000 104.200 C 312.010 104.750,310.390 105.650,309.400 106.200 C 308.410 106.750,306.745 107.672,305.700 108.249 C 304.655 108.827,303.260 109.615,302.600 110.001 C 301.940 110.386,300.320 111.290,299.000 112.009 C 297.680 112.728,295.250 114.074,293.600 114.999 C 287.471 118.437,286.556 118.946,284.600 119.999 C 283.500 120.592,281.880 121.492,281.000 122.000 C 280.120 122.508,278.500 123.408,277.400 124.000 C 276.300 124.592,274.770 125.433,274.000 125.869 C 272.815 126.540,266.923 129.814,259.100 134.147 C 256.753 135.448,254.191 136.871,251.700 138.258 C 250.655 138.840,248.810 139.856,247.600 140.516 C 246.390 141.175,245.177 141.889,244.905 142.102 C 243.164 143.465,243.200 144.280,243.200 104.013 L 243.200 66.000 234.200 66.000 L 225.200 66.000 225.200 120.400 M0.000 235.600 L 0.000 246.000 35.000 246.000 C 56.362 246.000,70.000 246.145,70.000 246.373 C 70.000 246.871,68.458 247.905,64.600 249.995 C 62.840 250.948,60.770 252.085,60.000 252.521 C 59.230 252.957,57.835 253.738,56.900 254.257 C 55.220 255.189,53.207 256.307,49.900 258.145 C 48.965 258.664,47.120 259.682,45.800 260.406 C 44.480 261.130,41.420 262.840,39.000 264.204 C 36.580 265.569,33.520 267.276,32.200 267.998 C 30.880 268.720,28.990 269.763,28.000 270.316 C 27.010 270.870,25.300 271.807,24.200 272.399 C 23.100 272.992,21.480 273.891,20.600 274.397 C 19.720 274.903,18.010 275.865,16.800 276.534 C 15.590 277.203,11.983 279.201,8.784 280.975 C 5.586 282.749,2.301 284.556,1.484 284.991 L 0.000 285.782 0.000 297.091 C 0.000 307.792,0.104 308.911,1.020 308.038 C 1.425 307.652,2.004 307.320,9.900 302.948 C 14.059 300.645,19.089 297.852,20.700 296.951 C 21.635 296.428,23.165 295.575,24.100 295.056 C 25.035 294.537,26.655 293.637,27.700 293.056 C 28.745 292.475,30.410 291.550,31.400 291.000 C 32.390 290.450,34.010 289.550,35.000 289.000 C 35.990 288.450,37.565 287.572,38.500 287.049 C 40.111 286.148,45.141 283.355,49.300 281.052 C 50.345 280.473,52.055 279.522,53.100 278.939 C 54.145 278.355,55.900 277.393,57.000 276.801 C 58.100 276.208,59.720 275.310,60.600 274.805 C 61.480 274.300,62.920 273.486,63.800 272.997 C 68.429 270.421,80.087 263.967,82.000 262.921 C 83.210 262.259,84.920 261.306,85.800 260.802 C 86.680 260.299,88.165 259.462,89.100 258.943 C 90.035 258.425,91.565 257.575,92.500 257.057 C 93.435 256.538,94.830 255.757,95.600 255.321 C 96.370 254.886,99.880 252.940,103.400 250.997 C 106.920 249.054,110.390 247.135,111.112 246.732 C 112.585 245.910,156.000 245.563,156.000 246.373 C 156.000 246.871,154.458 247.905,150.600 249.995 C 148.840 250.948,146.770 252.085,146.000 252.521 C 145.230 252.957,143.835 253.738,142.900 254.257 C 141.175 255.214,139.130 256.350,135.700 258.256 C 134.655 258.837,133.080 259.711,132.200 260.200 C 129.363 261.775,126.669 263.279,123.600 265.001 C 121.950 265.926,119.520 267.275,118.200 267.997 C 116.880 268.720,114.990 269.763,114.000 270.316 C 113.010 270.870,111.300 271.807,110.200 272.399 C 109.100 272.992,107.480 273.890,106.600 274.395 C 105.720 274.900,104.190 275.762,103.200 276.311 C 102.210 276.860,100.355 277.914,99.079 278.654 C 97.802 279.394,96.690 280.000,96.609 280.000 C 96.527 280.000,94.601 281.052,92.330 282.338 C 86.145 285.839,84.398 286.816,82.200 287.999 C 81.100 288.592,79.480 289.492,78.600 290.000 C 77.720 290.508,76.100 291.408,75.000 292.000 C 73.900 292.592,72.370 293.433,71.600 293.869 C 70.410 294.543,65.537 297.251,56.600 302.203 C 53.413 303.970,51.339 305.122,49.300 306.261 C 48.255 306.845,46.500 307.807,45.400 308.399 C 44.300 308.992,42.447 310.044,41.282 310.738 C 40.118 311.432,39.106 312.000,39.034 312.000 C 38.962 312.000,37.124 313.009,34.951 314.242 C 32.778 315.475,29.740 317.158,28.200 317.982 C 26.660 318.806,24.500 320.004,23.400 320.644 C 22.300 321.284,20.860 322.076,20.200 322.404 C 19.540 322.731,18.910 323.089,18.800 323.199 C 18.690 323.310,17.880 323.779,17.000 324.242 C 16.120 324.706,14.410 325.639,13.200 326.317 C 11.990 326.995,8.756 328.803,6.013 330.336 C 3.270 331.869,0.960 333.320,0.880 333.561 C 0.544 334.567,19.426 334.123,20.530 333.100 C 21.065 332.605,22.199 331.823,23.051 331.362 C 23.903 330.900,25.320 330.108,26.200 329.600 C 27.080 329.092,28.700 328.192,29.800 327.600 C 30.900 327.008,32.520 326.110,33.400 325.605 C 35.952 324.141,45.572 318.802,51.600 315.505 C 52.810 314.844,54.340 313.986,55.000 313.601 C 55.660 313.215,57.055 312.427,58.100 311.849 C 59.145 311.272,60.765 310.375,61.700 309.856 C 62.635 309.337,64.210 308.462,65.200 307.912 C 66.190 307.363,67.630 306.558,68.400 306.125 C 69.170 305.691,72.680 303.746,76.200 301.803 C 79.720 299.860,83.230 297.912,84.000 297.473 C 84.770 297.035,86.300 296.192,87.400 295.600 C 88.500 295.008,90.120 294.108,91.000 293.600 C 91.880 293.092,93.500 292.189,94.600 291.593 C 96.434 290.600,111.779 282.065,116.000 279.690 C 116.990 279.133,118.700 278.193,119.800 277.601 C 120.900 277.008,122.520 276.110,123.400 275.605 C 125.240 274.549,127.198 273.459,130.600 271.597 C 131.920 270.875,134.350 269.526,136.000 268.601 C 139.063 266.882,141.401 265.577,144.600 263.800 C 145.590 263.250,147.255 262.324,148.300 261.742 C 149.345 261.160,151.190 260.144,152.400 259.484 C 153.610 258.825,154.823 258.111,155.095 257.898 C 156.836 256.535,156.800 255.720,156.800 295.987 L 156.800 334.000 165.800 334.000 L 174.800 334.000 174.800 279.600 L 174.800 225.200 87.400 225.200 L 0.000 225.200 0.000 235.600 M225.200 279.600 L 225.200 334.000 234.200 334.000 L 243.200 334.000 243.200 302.024 C 243.200 280.659,243.336 269.963,243.609 269.794 C 243.834 269.655,245.139 270.166,246.509 270.929 C 247.879 271.692,249.855 272.785,250.900 273.358 C 251.945 273.931,253.610 274.850,254.600 275.400 C 255.590 275.950,257.255 276.872,258.300 277.449 C 259.345 278.027,260.740 278.815,261.400 279.201 C 262.060 279.586,263.680 280.493,265.000 281.215 C 267.162 282.398,277.495 288.144,282.600 291.002 C 283.700 291.618,285.500 292.607,286.600 293.199 C 287.700 293.792,289.320 294.692,290.200 295.200 C 291.080 295.708,292.700 296.608,293.800 297.201 C 295.756 298.254,296.671 298.763,302.800 302.201 C 304.450 303.126,306.880 304.472,308.200 305.191 C 309.520 305.910,311.140 306.814,311.800 307.199 C 312.460 307.585,313.810 308.348,314.800 308.894 C 315.790 309.440,317.230 310.242,318.000 310.675 C 318.770 311.109,320.840 312.240,322.600 313.188 C 324.360 314.136,325.980 315.041,326.200 315.198 C 326.420 315.355,327.860 316.165,329.400 316.997 C 330.940 317.830,333.550 319.269,335.200 320.197 C 338.820 322.231,340.050 322.916,347.400 327.000 C 348.390 327.550,350.010 328.450,351.000 329.000 C 351.990 329.550,353.579 330.429,354.532 330.954 C 357.418 332.544,358.000 332.971,358.000 333.496 C 358.000 333.895,362.311 334.000,378.633 334.000 C 393.667 334.000,399.226 333.879,399.118 333.553 C 399.036 333.307,397.356 332.213,395.384 331.122 C 393.413 330.031,390.810 328.586,389.600 327.911 C 388.390 327.236,386.500 326.198,385.400 325.604 C 384.300 325.010,382.680 324.110,381.800 323.605 C 380.920 323.100,379.390 322.238,378.400 321.689 C 377.410 321.140,375.555 320.086,374.279 319.346 C 373.002 318.606,371.897 318.000,371.824 318.000 C 371.751 318.000,369.556 316.803,366.946 315.340 C 364.336 313.877,361.435 312.257,360.500 311.740 C 356.655 309.614,355.322 308.869,353.800 307.995 C 352.920 307.490,351.300 306.592,350.200 306.000 C 349.100 305.408,347.480 304.509,346.600 304.002 C 345.720 303.495,343.895 302.489,342.543 301.766 C 341.192 301.043,338.164 299.360,335.813 298.026 C 333.463 296.692,331.471 295.600,331.388 295.600 C 331.304 295.600,330.282 295.032,329.118 294.338 C 327.953 293.644,326.100 292.592,325.000 291.999 C 323.900 291.407,322.145 290.445,321.100 289.861 C 319.194 288.797,317.241 287.710,313.700 285.746 C 312.655 285.166,310.755 284.086,309.479 283.346 C 308.202 282.606,307.090 282.000,307.009 282.000 C 306.927 282.000,305.001 280.948,302.730 279.662 C 300.458 278.375,297.520 276.730,296.200 276.006 C 294.880 275.282,293.035 274.264,292.100 273.745 C 291.165 273.225,289.545 272.328,288.500 271.751 C 287.455 271.173,286.060 270.385,285.400 269.999 C 284.740 269.614,283.210 268.758,282.000 268.098 C 280.790 267.439,277.282 265.506,274.203 263.803 C 271.125 262.101,267.435 260.071,266.003 259.292 C 264.572 258.514,262.950 257.583,262.400 257.224 C 261.850 256.865,260.860 256.310,260.200 255.990 C 259.540 255.670,258.100 254.884,257.000 254.243 C 255.900 253.601,254.079 252.587,252.954 251.988 C 245.710 248.134,243.436 246.697,243.880 246.253 C 244.643 245.491,288.198 246.016,289.200 246.800 C 289.750 247.230,290.313 247.586,290.450 247.591 C 290.658 247.599,297.979 251.618,305.600 255.909 C 306.590 256.466,308.300 257.407,309.400 257.999 C 310.500 258.592,312.120 259.492,313.000 260.000 C 313.880 260.508,315.500 261.408,316.600 262.001 C 318.798 263.184,320.545 264.161,326.730 267.662 C 329.001 268.948,330.927 270.000,331.009 270.000 C 331.090 270.000,332.202 270.606,333.479 271.346 C 334.755 272.086,336.610 273.140,337.600 273.689 C 338.590 274.238,340.120 275.100,341.000 275.605 C 341.880 276.110,343.500 277.008,344.600 277.601 C 345.700 278.193,347.455 279.155,348.500 279.739 C 352.812 282.147,354.307 282.975,356.400 284.111 C 357.610 284.769,359.140 285.620,359.800 286.004 C 361.368 286.915,364.496 288.651,367.000 289.999 C 368.100 290.592,369.720 291.492,370.600 292.000 C 371.480 292.508,373.100 293.408,374.200 294.000 C 375.300 294.592,376.920 295.490,377.800 295.995 C 380.698 297.658,391.660 303.735,396.397 306.304 C 397.828 307.081,399.225 307.892,399.500 308.107 C 399.895 308.416,400.000 307.367,400.000 303.135 L 400.000 297.772 397.500 296.494 C 396.125 295.791,394.280 294.794,393.400 294.277 C 392.520 293.761,390.810 292.793,389.600 292.127 C 388.390 291.461,386.545 290.440,385.500 289.858 C 384.455 289.276,382.790 288.350,381.800 287.800 C 380.810 287.250,379.235 286.372,378.300 285.849 C 374.982 283.993,365.368 278.687,362.803 277.296 C 361.372 276.519,360.016 275.742,359.791 275.568 C 359.566 275.395,358.396 274.728,357.191 274.088 C 355.986 273.447,354.190 272.470,353.200 271.917 C 351.040 270.711,348.056 269.052,345.600 267.692 C 339.704 264.427,332.002 260.151,330.800 259.474 C 330.030 259.041,328.635 258.262,327.700 257.743 C 326.765 257.225,325.235 256.375,324.300 255.857 C 323.365 255.338,321.970 254.557,321.200 254.121 C 320.430 253.686,317.550 252.100,314.800 250.597 C 309.364 247.626,307.890 246.643,308.280 246.253 C 308.419 246.114,329.113 246.000,354.267 246.000 L 400.000 246.000 400.000 235.600 L 400.000 225.200 312.600 225.200 L 225.200 225.200 225.200 279.600 " stroke="none" fill="#f2f2f2" fill-rule="evenodd"></path><path id="path1" d="M44.000 67.162 C 44.000 67.525,45.338 68.364,49.800 70.800 C 51.120 71.521,52.965 72.536,53.900 73.055 C 54.835 73.575,56.410 74.450,57.400 75.000 C 61.675 77.375,63.104 78.170,64.800 79.115 C 65.790 79.667,68.940 81.417,71.800 83.004 C 74.660 84.591,77.810 86.339,78.800 86.888 C 79.790 87.437,81.320 88.300,82.200 88.805 C 83.080 89.310,84.700 90.208,85.800 90.800 C 86.900 91.392,88.520 92.292,89.400 92.800 C 90.280 93.308,91.900 94.208,93.000 94.800 C 94.100 95.392,95.630 96.235,96.400 96.673 C 97.170 97.112,100.680 99.060,104.200 101.003 C 110.937 104.722,112.268 105.465,114.700 106.862 C 115.525 107.335,116.920 108.100,117.800 108.562 C 118.680 109.023,119.490 109.490,119.600 109.600 C 119.710 109.710,120.790 110.317,122.000 110.949 C 123.210 111.581,125.010 112.553,126.000 113.108 C 126.990 113.662,128.790 114.657,130.000 115.317 C 131.210 115.977,133.370 117.186,134.800 118.004 C 136.230 118.822,138.480 120.081,139.800 120.801 C 141.120 121.521,143.010 122.563,144.000 123.116 C 144.990 123.669,146.520 124.499,147.400 124.961 C 148.280 125.422,149.090 125.890,149.200 126.000 C 149.310 126.110,150.120 126.577,151.000 127.038 C 151.880 127.500,153.280 128.265,154.112 128.738 C 154.944 129.212,155.709 129.600,155.812 129.600 C 155.915 129.600,156.000 115.470,156.000 98.200 L 156.000 66.800 100.000 66.800 C 66.853 66.800,44.000 66.948,44.000 67.162 M244.000 104.393 L 244.000 141.986 245.400 141.193 C 246.170 140.757,247.430 140.040,248.200 139.600 C 251.004 137.998,252.315 137.266,258.600 133.797 C 262.120 131.854,265.630 129.907,266.400 129.470 C 268.005 128.560,270.985 126.939,273.600 125.554 C 274.590 125.029,275.490 124.510,275.600 124.400 C 275.710 124.290,276.340 123.909,277.000 123.552 C 281.338 121.211,283.145 120.216,284.200 119.587 C 284.860 119.194,287.020 117.987,289.000 116.904 C 290.980 115.821,293.455 114.455,294.500 113.868 C 298.421 111.664,300.257 110.647,302.200 109.601 C 303.300 109.008,304.920 108.110,305.800 107.605 C 306.680 107.100,308.120 106.286,309.000 105.797 C 313.629 103.221,325.287 96.767,327.200 95.721 C 328.410 95.059,330.120 94.103,331.000 93.597 C 331.880 93.091,333.500 92.192,334.600 91.600 C 335.700 91.008,337.275 90.136,338.100 89.662 C 342.135 87.343,354.247 80.643,356.600 79.427 C 357.480 78.972,358.290 78.510,358.400 78.400 C 358.510 78.290,359.320 77.823,360.200 77.362 C 361.080 76.900,362.520 76.110,363.400 75.605 C 365.164 74.593,367.162 73.480,370.200 71.817 C 375.529 68.900,378.000 67.413,378.000 67.120 C 378.000 66.944,347.850 66.800,311.000 66.800 L 244.000 66.800 244.000 104.393 M0.000 128.013 L 0.000 153.200 45.000 153.200 C 69.750 153.200,90.000 153.065,89.999 152.900 C 89.999 152.735,87.537 151.250,84.528 149.600 C 77.927 145.980,75.120 144.421,73.000 143.199 C 72.120 142.691,70.500 141.792,69.400 141.199 C 68.300 140.607,66.545 139.645,65.500 139.061 C 61.334 136.734,59.707 135.833,57.600 134.683 C 56.390 134.023,54.230 132.814,52.800 131.996 C 51.370 131.178,49.120 129.919,47.800 129.199 C 44.546 127.424,42.505 126.288,40.600 125.195 C 39.720 124.690,38.100 123.792,37.000 123.199 C 35.900 122.607,34.190 121.667,33.200 121.110 C 30.335 119.499,20.453 114.041,17.603 112.496 C 16.172 111.719,14.816 110.942,14.591 110.768 C 14.366 110.595,13.196 109.929,11.991 109.288 C 10.786 108.648,9.080 107.708,8.200 107.200 C 7.320 106.692,5.614 105.752,4.409 105.112 C 3.204 104.471,2.034 103.807,1.809 103.636 C -0.097 102.184,0.000 100.875,0.000 128.013 M397.000 116.450 C 395.460 117.350,392.940 118.760,391.400 119.583 C 389.860 120.406,387.880 121.494,387.000 122.002 C 386.120 122.509,384.500 123.408,383.400 124.000 C 382.300 124.592,380.680 125.490,379.800 125.995 C 378.273 126.871,377.176 127.485,372.900 129.852 C 368.682 132.188,363.699 134.954,362.000 135.905 C 361.010 136.459,359.480 137.311,358.600 137.800 C 356.842 138.776,354.422 140.120,351.500 141.744 C 350.455 142.325,348.790 143.250,347.800 143.800 C 346.810 144.350,345.235 145.228,344.300 145.751 C 343.365 146.274,340.980 147.600,339.000 148.698 C 337.020 149.796,334.680 151.095,333.800 151.585 C 332.920 152.075,332.029 152.638,331.820 152.838 C 331.593 153.054,345.231 153.200,365.720 153.200 L 400.000 153.200 400.000 134.000 C 400.000 123.440,399.955 114.803,399.900 114.807 C 399.845 114.811,398.540 115.550,397.000 116.450 M0.000 265.800 C 0.000 278.170,0.139 284.800,0.399 284.800 C 0.748 284.800,3.291 283.448,10.000 279.695 C 11.714 278.737,13.063 277.986,16.900 275.857 C 17.835 275.338,19.320 274.502,20.200 274.000 C 22.105 272.913,24.146 271.778,27.400 269.997 C 28.720 269.275,31.150 267.922,32.800 266.991 C 34.450 266.060,36.970 264.674,38.400 263.910 C 39.830 263.145,41.720 262.106,42.600 261.599 C 43.480 261.092,44.920 260.300,45.800 259.838 C 46.680 259.377,47.490 258.910,47.600 258.800 C 47.710 258.690,48.520 258.223,49.400 257.762 C 50.280 257.300,51.720 256.517,52.600 256.020 C 53.480 255.523,56.000 254.118,58.200 252.897 C 60.400 251.677,63.431 249.985,64.935 249.139 C 66.439 248.292,67.834 247.600,68.035 247.600 C 68.236 247.600,68.400 247.420,68.400 247.200 C 68.400 246.936,56.733 246.800,34.200 246.800 L 0.000 246.800 0.000 265.800 M310.000 247.101 C 310.000 247.266,310.855 247.847,311.900 248.392 C 312.945 248.937,315.600 250.394,317.800 251.630 C 321.532 253.726,324.956 255.617,327.800 257.152 C 328.460 257.509,329.090 257.890,329.200 258.000 C 329.310 258.110,330.120 258.578,331.000 259.039 C 331.880 259.501,333.410 260.331,334.400 260.883 C 336.253 261.918,338.725 263.293,341.700 264.943 C 342.635 265.462,345.470 267.022,348.000 268.410 C 352.762 271.023,354.154 271.799,356.700 273.262 C 357.525 273.736,359.100 274.608,360.200 275.200 C 361.300 275.792,362.920 276.692,363.800 277.200 C 364.680 277.708,366.300 278.614,367.400 279.214 C 373.080 282.310,377.125 284.547,378.200 285.187 C 378.860 285.580,380.480 286.489,381.800 287.206 C 384.276 288.552,386.228 289.630,389.000 291.183 C 389.880 291.677,391.320 292.467,392.200 292.940 C 393.080 293.413,393.890 293.890,394.000 294.000 C 394.110 294.110,395.505 294.883,397.100 295.717 L 400.000 297.234 400.000 272.017 L 400.000 246.800 355.000 246.800 C 330.250 246.800,310.000 246.935,310.000 247.101 M155.000 258.524 C 154.560 258.786,154.110 259.090,154.000 259.200 C 153.890 259.310,153.260 259.691,152.600 260.048 C 147.978 262.543,134.135 270.206,131.000 272.005 C 130.120 272.510,128.500 273.408,127.400 274.000 C 126.300 274.592,124.680 275.492,123.800 276.000 C 122.920 276.508,121.300 277.408,120.200 278.001 C 117.696 279.349,114.568 281.085,113.000 281.996 C 112.340 282.380,110.810 283.231,109.600 283.889 C 107.513 285.022,106.075 285.818,101.700 288.261 C 100.655 288.844,99.080 289.699,98.200 290.161 C 97.320 290.622,96.510 291.090,96.400 291.200 C 96.290 291.310,95.480 291.778,94.600 292.239 C 92.577 293.300,89.657 294.928,86.679 296.654 C 85.402 297.394,84.289 298.000,84.206 298.000 C 84.123 298.000,81.745 299.305,78.920 300.900 C 76.096 302.495,73.249 304.070,72.593 304.399 C 71.937 304.729,71.310 305.089,71.200 305.199 C 71.090 305.310,70.280 305.777,69.400 306.238 C 68.520 306.700,67.080 307.492,66.200 308.000 C 65.320 308.508,63.700 309.408,62.600 310.000 C 61.500 310.592,59.970 311.435,59.200 311.873 C 58.430 312.312,54.920 314.260,51.400 316.203 C 47.880 318.146,44.370 320.091,43.600 320.525 C 42.830 320.958,41.435 321.738,40.500 322.257 C 39.565 322.775,37.945 323.676,36.900 324.258 C 35.855 324.840,34.010 325.856,32.800 326.516 C 31.590 327.175,30.420 327.844,30.200 328.002 C 29.980 328.159,28.360 329.061,26.600 330.005 C 22.618 332.142,21.936 332.603,22.269 332.936 C 22.414 333.081,52.563 333.200,89.267 333.200 L 156.000 333.200 156.000 295.600 C 156.000 274.920,155.955 258.011,155.900 258.024 C 155.845 258.036,155.440 258.261,155.000 258.524 M244.000 301.800 L 244.000 333.200 299.933 333.200 C 330.697 333.200,355.987 333.080,356.134 332.932 C 356.388 332.678,355.616 332.181,351.000 329.625 C 349.900 329.016,348.280 328.103,347.400 327.597 C 346.520 327.091,344.900 326.192,343.800 325.600 C 342.700 325.008,341.080 324.108,340.200 323.600 C 339.320 323.092,337.700 322.192,336.600 321.600 C 335.500 321.008,333.970 320.165,333.200 319.727 C 332.430 319.288,328.920 317.340,325.400 315.397 C 318.663 311.678,317.332 310.935,314.900 309.538 C 314.075 309.065,312.680 308.300,311.800 307.838 C 310.920 307.377,310.110 306.910,310.000 306.799 C 309.890 306.689,309.260 306.329,308.600 306.000 C 307.940 305.671,305.901 304.547,304.068 303.501 C 302.236 302.455,300.684 301.600,300.620 301.600 C 300.555 301.600,298.757 300.611,296.624 299.403 C 294.490 298.195,291.362 296.454,289.672 295.535 C 286.452 293.784,284.986 292.966,282.500 291.538 C 281.675 291.064,280.100 290.192,279.000 289.600 C 277.900 289.008,276.280 288.108,275.400 287.600 C 274.520 287.092,272.630 286.046,271.200 285.276 C 269.770 284.505,266.620 282.761,264.200 281.399 C 256.477 277.054,255.837 276.698,253.800 275.601 C 252.700 275.008,251.080 274.108,250.200 273.600 C 248.022 272.343,244.355 270.400,244.159 270.400 C 244.072 270.400,244.000 284.530,244.000 301.800 " stroke="none" fill="#0555b4" fill-rule="evenodd"></path><path id="path2" d="M175.200 121.200 L 175.200 175.200 87.600 175.200 L 0.000 175.200 0.000 200.000 L 0.000 224.800 87.600 224.800 L 175.200 224.800 175.200 278.800 L 175.200 332.800 200.000 332.800 L 224.800 332.800 224.800 278.800 L 224.800 224.800 312.400 224.800 L 400.000 224.800 400.000 200.000 L 400.000 175.200 312.400 175.200 L 224.800 175.200 224.800 121.200 L 224.800 67.200 200.000 67.200 L 175.200 67.200 175.200 121.200 M0.000 79.400 C 0.000 90.762,0.028 91.200,0.767 91.200 C 1.188 91.200,1.593 91.335,1.667 91.500 C 1.740 91.665,2.790 92.317,4.000 92.950 C 6.507 94.260,9.279 95.776,13.600 98.199 C 15.250 99.125,17.410 100.333,18.400 100.885 C 19.390 101.436,20.920 102.290,21.800 102.783 C 22.680 103.277,24.120 104.067,25.000 104.540 C 25.880 105.013,26.690 105.490,26.800 105.600 C 26.910 105.710,27.720 106.181,28.600 106.647 C 29.480 107.112,31.010 107.922,32.000 108.447 C 32.990 108.971,33.890 109.490,34.000 109.600 C 34.110 109.710,34.920 110.174,35.800 110.631 C 37.551 111.541,46.621 116.486,48.700 117.663 C 49.415 118.069,50.675 118.788,51.500 119.262 C 52.325 119.735,53.720 120.500,54.600 120.962 C 55.480 121.423,56.290 121.890,56.400 122.000 C 56.510 122.110,57.320 122.574,58.200 123.030 C 60.301 124.120,61.752 124.951,62.000 125.205 C 62.110 125.318,63.100 125.858,64.200 126.405 C 65.300 126.952,67.877 128.344,69.928 129.497 C 71.978 130.650,75.038 132.346,76.728 133.265 C 78.417 134.184,80.430 135.293,81.200 135.730 C 81.970 136.166,83.320 136.900,84.200 137.362 C 85.080 137.823,85.890 138.290,86.000 138.401 C 86.110 138.511,86.740 138.871,87.400 139.200 C 88.060 139.529,88.690 139.889,88.800 140.000 C 88.910 140.111,89.540 140.471,90.200 140.800 C 90.860 141.129,91.490 141.489,91.600 141.599 C 91.710 141.710,92.520 142.172,93.400 142.627 C 95.815 143.875,100.687 146.547,105.024 149.003 C 107.157 150.211,109.014 151.204,109.151 151.209 C 109.288 151.214,109.850 151.570,110.400 152.000 C 111.363 152.754,112.174 152.782,132.600 152.790 C 156.371 152.798,154.565 153.087,149.200 150.130 C 147.990 149.463,146.280 148.513,145.400 148.019 C 144.520 147.525,143.080 146.733,142.200 146.260 C 141.320 145.787,140.510 145.310,140.400 145.200 C 140.290 145.090,139.435 144.595,138.500 144.100 C 137.565 143.605,136.035 142.795,135.100 142.300 C 134.165 141.805,133.310 141.310,133.200 141.200 C 133.090 141.090,132.280 140.621,131.400 140.158 C 129.194 138.996,125.321 136.885,123.400 135.796 C 122.520 135.298,120.945 134.420,119.900 133.845 C 118.855 133.270,117.145 132.323,116.100 131.739 C 115.055 131.156,113.480 130.301,112.600 129.839 C 111.720 129.378,110.910 128.910,110.800 128.800 C 110.690 128.690,109.880 128.226,109.000 127.770 C 106.824 126.641,105.440 125.844,105.200 125.581 C 105.090 125.461,104.010 124.869,102.800 124.265 C 101.590 123.662,100.060 122.857,99.400 122.477 C 98.740 122.097,95.140 120.094,91.400 118.026 C 84.330 114.117,83.005 113.378,80.500 111.938 C 79.675 111.465,78.280 110.700,77.400 110.238 C 76.520 109.777,75.710 109.310,75.600 109.200 C 75.490 109.090,74.680 108.623,73.800 108.162 C 72.920 107.700,71.570 106.966,70.800 106.530 C 70.030 106.093,67.960 104.962,66.200 104.016 C 64.440 103.070,62.460 101.982,61.800 101.598 C 61.140 101.213,59.790 100.452,58.800 99.906 C 57.810 99.360,56.280 98.500,55.400 97.995 C 54.520 97.490,52.900 96.592,51.800 96.000 C 50.700 95.408,49.080 94.508,48.200 94.000 C 47.320 93.492,45.700 92.596,44.600 92.008 C 41.950 90.593,40.644 89.844,40.400 89.599 C 40.290 89.489,39.665 89.129,39.011 88.799 C 38.357 88.470,35.747 87.052,33.211 85.649 C 30.675 84.246,27.700 82.609,26.600 82.011 C 25.500 81.413,23.880 80.508,23.000 80.000 C 22.120 79.492,20.680 78.700,19.800 78.238 C 18.920 77.777,18.110 77.310,18.000 77.200 C 17.890 77.090,17.080 76.619,16.200 76.153 C 15.320 75.688,13.790 74.878,12.800 74.353 C 11.810 73.829,10.940 73.265,10.867 73.100 C 10.793 72.935,10.591 72.800,10.416 72.800 C 10.242 72.800,7.978 71.630,5.385 70.200 C 2.792 68.770,0.520 67.600,0.335 67.600 C 0.151 67.600,0.000 72.910,0.000 79.400 M397.603 68.637 C 396.615 69.201,394.365 70.414,392.603 71.331 C 390.842 72.248,389.310 73.089,389.200 73.199 C 389.090 73.310,388.280 73.774,387.400 74.230 C 385.299 75.320,383.848 76.151,383.600 76.405 C 383.490 76.518,382.500 77.056,381.400 77.600 C 380.300 78.144,379.310 78.682,379.200 78.795 C 378.960 79.042,377.688 79.773,375.000 81.209 C 373.900 81.797,372.100 82.782,371.000 83.398 C 366.494 85.922,363.735 87.434,362.600 88.000 C 361.940 88.329,361.310 88.689,361.200 88.799 C 361.090 88.910,360.235 89.405,359.300 89.900 C 358.365 90.395,356.835 91.205,355.900 91.700 C 354.965 92.195,354.110 92.699,354.000 92.821 C 353.890 92.942,353.170 93.349,352.400 93.725 C 351.630 94.100,350.100 94.944,349.000 95.600 C 347.900 96.256,346.370 97.100,345.600 97.475 C 344.830 97.851,344.110 98.258,344.000 98.379 C 343.890 98.501,343.260 98.891,342.600 99.248 C 338.652 101.379,336.369 102.625,334.600 103.615 C 333.500 104.231,331.430 105.390,330.000 106.191 C 328.570 106.992,327.085 107.748,326.700 107.870 C 326.315 107.993,326.000 108.252,326.000 108.447 C 326.000 108.641,325.640 108.800,325.200 108.800 C 324.760 108.800,324.399 108.935,324.397 109.100 C 324.395 109.265,323.990 109.598,323.497 109.840 C 321.810 110.669,319.000 112.200,318.800 112.400 C 318.690 112.510,317.880 112.978,317.000 113.439 C 316.120 113.901,314.590 114.731,313.600 115.284 C 312.610 115.837,310.810 116.837,309.600 117.505 C 308.390 118.174,305.443 119.814,303.052 121.148 C 300.661 122.483,298.186 123.805,297.552 124.085 C 296.918 124.366,296.400 124.731,296.400 124.898 C 296.400 125.064,296.040 125.200,295.600 125.200 C 295.160 125.200,294.799 125.335,294.797 125.500 C 294.795 125.665,294.390 125.998,293.897 126.240 C 292.210 127.069,289.400 128.600,289.200 128.800 C 289.090 128.910,288.280 129.387,287.400 129.860 C 285.875 130.680,284.584 131.397,281.000 133.414 C 277.358 135.463,271.645 138.583,269.400 139.749 C 268.080 140.434,266.910 141.086,266.800 141.198 C 266.434 141.568,264.219 142.816,262.700 143.506 C 261.875 143.882,261.200 144.326,261.200 144.494 C 261.200 144.662,260.840 144.800,260.400 144.800 C 259.960 144.800,259.599 144.935,259.597 145.100 C 259.595 145.265,259.190 145.598,258.697 145.840 C 257.010 146.669,254.200 148.200,254.000 148.400 C 253.803 148.597,252.674 149.225,248.489 151.468 L 246.377 152.600 267.443 152.704 C 279.580 152.763,288.698 152.654,288.955 152.445 C 289.200 152.246,290.210 151.640,291.200 151.097 C 294.190 149.459,297.176 147.804,301.748 145.252 C 304.139 143.917,306.614 142.595,307.248 142.315 C 307.882 142.034,308.400 141.669,308.400 141.502 C 308.400 141.336,308.760 141.200,309.200 141.200 C 309.640 141.200,310.000 141.041,310.000 140.847 C 310.000 140.652,310.315 140.390,310.700 140.264 C 311.085 140.138,312.210 139.552,313.200 138.961 C 316.246 137.143,318.865 135.662,323.272 133.265 C 324.962 132.346,328.022 130.650,330.072 129.497 C 332.123 128.344,334.700 126.952,335.800 126.405 C 336.900 125.858,337.890 125.318,338.000 125.205 C 338.248 124.951,339.699 124.120,341.800 123.030 C 342.680 122.574,343.490 122.110,343.600 122.000 C 343.710 121.890,344.520 121.423,345.400 120.962 C 346.280 120.500,347.675 119.735,348.500 119.262 C 349.325 118.788,350.585 118.069,351.300 117.663 C 353.379 116.486,362.449 111.541,364.200 110.631 C 365.080 110.174,365.890 109.710,366.000 109.600 C 366.110 109.490,366.965 108.995,367.900 108.500 C 368.835 108.005,370.365 107.195,371.300 106.700 C 372.235 106.205,373.090 105.710,373.200 105.600 C 373.310 105.490,374.120 105.013,375.000 104.540 C 375.880 104.067,377.320 103.277,378.200 102.783 C 387.785 97.413,392.237 94.959,396.400 92.754 C 397.390 92.229,398.260 91.665,398.333 91.500 C 398.407 91.335,398.812 91.200,399.233 91.200 C 399.972 91.200,400.000 90.762,400.000 79.400 C 400.000 72.910,399.865 67.602,399.700 67.605 C 399.535 67.607,398.592 68.072,397.603 68.637 M111.200 247.553 C 111.200 247.748,110.885 248.009,110.500 248.135 C 110.115 248.261,108.900 248.869,107.800 249.487 C 106.700 250.105,104.450 251.359,102.800 252.273 C 101.150 253.188,98.630 254.591,97.200 255.392 C 95.770 256.192,94.285 256.948,93.900 257.070 C 93.515 257.193,93.200 257.452,93.200 257.647 C 93.200 257.841,92.840 258.000,92.400 258.000 C 91.960 258.000,91.599 258.135,91.597 258.300 C 91.595 258.465,91.190 258.798,90.697 259.040 C 89.010 259.869,86.200 261.400,86.000 261.600 C 85.890 261.710,85.080 262.177,84.200 262.638 C 83.320 263.100,81.880 263.892,81.000 264.400 C 80.120 264.908,78.500 265.814,77.400 266.414 C 76.300 267.013,73.690 268.447,71.600 269.600 C 69.510 270.752,66.900 272.169,65.800 272.748 C 64.700 273.326,63.740 273.935,63.667 274.100 C 63.593 274.265,63.188 274.400,62.767 274.400 C 62.345 274.400,61.999 274.535,61.997 274.700 C 61.995 274.865,61.590 275.198,61.097 275.440 C 59.410 276.269,56.600 277.800,56.400 278.000 C 56.290 278.110,55.480 278.587,54.600 279.060 C 53.014 279.912,51.208 280.916,48.700 282.337 C 47.985 282.742,45.150 284.300,42.400 285.800 C 39.650 287.300,36.770 288.886,36.000 289.325 C 35.230 289.764,33.880 290.500,33.000 290.962 C 32.120 291.423,31.310 291.904,31.200 292.032 C 31.090 292.160,30.415 292.519,29.700 292.830 C 28.985 293.141,28.400 293.531,28.400 293.698 C 28.400 293.864,28.040 294.000,27.600 294.000 C 27.160 294.000,26.799 294.135,26.797 294.300 C 26.795 294.465,26.390 294.798,25.897 295.040 C 24.210 295.869,21.400 297.400,21.200 297.600 C 21.090 297.710,20.280 298.178,19.400 298.639 C 17.826 299.465,15.749 300.606,11.800 302.816 C 6.208 305.945,4.473 306.881,3.100 307.506 C 2.275 307.881,1.600 308.326,1.600 308.494 C 1.600 308.662,1.240 308.800,0.800 308.800 C 0.018 308.800,0.000 309.067,0.000 320.600 C 0.000 327.090,0.157 332.400,0.349 332.400 C 0.541 332.400,2.386 331.454,4.449 330.299 C 6.512 329.143,8.740 327.928,9.400 327.599 C 10.060 327.270,10.690 326.902,10.800 326.780 C 10.910 326.658,11.630 326.251,12.400 325.875 C 13.170 325.500,14.700 324.656,15.800 324.000 C 16.900 323.344,18.430 322.500,19.200 322.125 C 19.970 321.749,20.690 321.342,20.800 321.221 C 20.910 321.099,21.720 320.613,22.600 320.140 C 24.125 319.320,25.416 318.603,29.000 316.586 C 31.150 315.377,37.524 311.946,39.007 311.201 C 39.663 310.871,40.290 310.511,40.400 310.401 C 40.651 310.149,42.127 309.306,44.200 308.230 C 45.080 307.774,45.890 307.310,46.000 307.200 C 46.110 307.090,46.920 306.623,47.800 306.162 C 48.680 305.700,50.120 304.908,51.000 304.400 C 51.880 303.892,53.500 302.987,54.600 302.390 C 55.700 301.792,58.040 300.500,59.800 299.519 C 61.560 298.537,63.990 297.190,65.200 296.525 C 66.410 295.860,68.210 294.862,69.200 294.308 C 70.190 293.753,71.990 292.781,73.200 292.149 C 74.410 291.517,75.490 290.910,75.600 290.800 C 75.710 290.690,76.520 290.226,77.400 289.770 C 79.469 288.696,80.948 287.852,81.200 287.600 C 81.310 287.490,82.120 287.022,83.000 286.561 C 83.880 286.099,85.455 285.244,86.500 284.661 C 87.545 284.077,89.255 283.130,90.300 282.555 C 91.345 281.980,92.920 281.102,93.800 280.604 C 95.721 279.515,99.594 277.404,101.800 276.242 C 102.680 275.779,103.460 275.265,103.533 275.100 C 103.607 274.935,104.012 274.800,104.433 274.800 C 104.855 274.800,105.201 274.665,105.203 274.500 C 105.205 274.335,105.610 274.002,106.103 273.760 C 107.790 272.931,110.600 271.400,110.800 271.200 C 110.910 271.090,111.720 270.623,112.600 270.162 C 113.480 269.700,114.920 268.910,115.800 268.405 C 120.247 265.853,127.394 261.916,130.600 260.251 C 131.920 259.566,133.090 258.913,133.200 258.802 C 133.310 258.690,133.940 258.329,134.600 258.000 C 135.260 257.671,135.890 257.309,136.000 257.195 C 136.110 257.082,137.100 256.544,138.200 256.000 C 139.300 255.456,140.290 254.918,140.400 254.805 C 140.638 254.561,141.884 253.844,144.600 252.388 C 147.668 250.743,151.269 248.736,152.600 247.930 C 153.770 247.221,153.262 247.203,132.500 247.201 C 120.440 247.201,111.200 247.353,111.200 247.553 M246.433 247.346 C 246.580 247.475,248.841 248.723,252.600 250.752 C 253.260 251.109,253.890 251.490,254.000 251.600 C 254.110 251.710,254.965 252.205,255.900 252.700 C 256.835 253.195,258.365 254.005,259.300 254.500 C 260.235 254.995,261.090 255.490,261.200 255.600 C 261.310 255.710,262.120 256.177,263.000 256.638 C 263.880 257.100,265.320 257.892,266.200 258.400 C 267.080 258.908,268.700 259.814,269.800 260.414 C 273.090 262.207,279.289 265.623,281.000 266.586 C 284.584 268.603,285.875 269.320,287.400 270.140 C 288.280 270.613,289.090 271.090,289.200 271.200 C 289.310 271.310,290.120 271.781,291.000 272.247 C 291.880 272.712,293.410 273.522,294.400 274.047 C 295.390 274.571,296.290 275.090,296.400 275.201 C 296.510 275.311,297.134 275.671,297.786 276.001 C 298.438 276.330,300.868 277.653,303.186 278.939 C 305.504 280.226,308.390 281.826,309.600 282.495 C 310.810 283.163,312.610 284.163,313.600 284.716 C 314.590 285.269,316.120 286.099,317.000 286.561 C 317.880 287.022,318.690 287.490,318.800 287.600 C 319.000 287.800,321.810 289.331,323.497 290.160 C 323.990 290.402,324.395 290.735,324.397 290.900 C 324.399 291.065,324.760 291.200,325.200 291.200 C 325.640 291.200,326.000 291.359,326.000 291.553 C 326.000 291.748,326.315 292.007,326.700 292.130 C 327.085 292.252,328.480 292.966,329.800 293.716 C 333.336 295.725,335.429 296.884,339.000 298.808 C 340.760 299.757,342.560 300.728,343.000 300.966 C 343.440 301.205,343.890 301.499,344.000 301.621 C 344.110 301.742,344.830 302.149,345.600 302.525 C 346.370 302.900,347.900 303.744,349.000 304.400 C 350.100 305.056,351.630 305.900,352.400 306.275 C 353.170 306.651,353.890 307.058,354.000 307.179 C 354.110 307.301,354.965 307.805,355.900 308.300 C 356.835 308.795,358.365 309.605,359.300 310.100 C 360.235 310.595,361.090 311.090,361.200 311.201 C 361.310 311.311,361.940 311.671,362.600 312.000 C 363.735 312.566,366.494 314.078,371.000 316.602 C 372.100 317.218,373.900 318.203,375.000 318.791 C 377.688 320.227,378.960 320.958,379.200 321.205 C 379.310 321.318,380.300 321.856,381.400 322.400 C 382.500 322.944,383.490 323.482,383.600 323.595 C 383.710 323.709,384.340 324.071,385.000 324.400 C 385.660 324.729,386.290 325.089,386.400 325.200 C 386.510 325.311,387.140 325.671,387.800 326.000 C 388.460 326.329,389.090 326.689,389.200 326.800 C 389.310 326.911,390.842 327.752,392.603 328.669 C 394.365 329.586,396.615 330.799,397.603 331.363 C 398.592 331.928,399.535 332.393,399.700 332.395 C 399.865 332.398,400.000 327.090,400.000 320.600 C 400.000 309.067,399.982 308.800,399.200 308.800 C 398.760 308.800,398.400 308.662,398.400 308.494 C 398.400 308.326,397.725 307.878,396.900 307.499 C 396.075 307.120,394.590 306.331,393.600 305.746 C 392.610 305.160,390.810 304.146,389.600 303.492 C 386.308 301.712,382.365 299.554,380.900 298.731 C 377.657 296.908,376.493 296.262,375.000 295.460 C 374.120 294.987,373.310 294.510,373.200 294.400 C 373.090 294.290,372.280 293.823,371.400 293.362 C 370.520 292.900,369.080 292.108,368.200 291.600 C 367.320 291.092,365.700 290.190,364.600 289.596 C 360.594 287.432,357.765 285.883,356.200 284.996 C 355.320 284.498,353.700 283.594,352.600 282.989 C 348.190 280.562,346.993 279.889,342.900 277.538 C 342.075 277.065,340.680 276.300,339.800 275.838 C 338.920 275.377,338.110 274.910,338.000 274.800 C 337.890 274.690,336.811 274.080,335.602 273.445 C 334.393 272.810,330.973 270.945,328.002 269.300 C 322.335 266.162,319.007 264.331,317.000 263.248 C 316.340 262.891,315.710 262.510,315.600 262.400 C 315.400 262.200,312.590 260.669,310.903 259.840 C 310.410 259.598,310.005 259.265,310.003 259.100 C 310.001 258.935,309.640 258.800,309.200 258.800 C 308.760 258.800,308.400 258.664,308.400 258.498 C 308.400 258.331,307.815 257.938,307.100 257.624 C 306.385 257.310,304.990 256.578,304.000 255.999 C 303.010 255.420,301.030 254.305,299.600 253.521 C 298.170 252.737,296.145 251.624,295.100 251.048 C 294.055 250.472,292.345 249.533,291.300 248.963 C 290.255 248.393,289.229 247.763,289.020 247.563 C 288.802 247.355,279.599 247.200,267.453 247.200 C 255.801 247.200,246.342 247.266,246.433 247.346 " stroke="none" fill="#dc0424" fill-rule="evenodd"></path><path id="path3" d="M42.000 66.520 C 42.000 66.988,43.989 68.239,49.700 71.361 C 51.588 72.393,53.462 73.431,57.100 75.459 C 58.145 76.042,61.340 77.817,64.200 79.404 C 67.060 80.991,70.300 82.789,71.400 83.400 C 72.500 84.012,74.165 84.937,75.100 85.456 C 76.035 85.975,77.565 86.825,78.500 87.344 C 79.435 87.863,81.010 88.738,82.000 89.288 C 82.990 89.838,84.610 90.738,85.600 91.288 C 86.590 91.838,88.210 92.742,89.200 93.296 C 95.615 96.886,106.116 102.708,107.800 103.608 C 108.900 104.195,110.520 105.090,111.400 105.595 C 112.280 106.100,113.810 106.960,114.800 107.506 C 115.790 108.052,117.140 108.815,117.800 109.201 C 118.460 109.586,119.990 110.444,121.200 111.105 C 123.933 112.600,134.006 118.166,136.300 119.449 C 137.235 119.972,138.810 120.850,139.800 121.400 C 140.790 121.950,142.410 122.850,143.400 123.400 C 144.390 123.950,146.055 124.872,147.100 125.449 C 148.145 126.027,149.540 126.815,150.200 127.201 C 153.903 129.366,156.064 130.407,156.410 130.194 C 156.658 130.040,156.800 118.324,156.800 97.976 L 156.800 66.000 99.400 66.000 C 52.546 66.000,42.000 66.096,42.000 66.520 M243.200 104.013 C 243.200 144.280,243.164 143.465,244.905 142.102 C 245.177 141.889,246.390 141.175,247.600 140.516 C 248.810 139.856,250.655 138.840,251.700 138.258 C 254.191 136.871,256.753 135.448,259.100 134.147 C 266.923 129.814,272.815 126.540,274.000 125.869 C 274.770 125.433,276.300 124.592,277.400 124.000 C 278.500 123.408,280.120 122.508,281.000 122.000 C 281.880 121.492,283.500 120.592,284.600 119.999 C 286.556 118.946,287.471 118.437,293.600 114.999 C 295.250 114.074,297.680 112.728,299.000 112.009 C 300.320 111.290,301.940 110.386,302.600 110.001 C 303.260 109.615,304.655 108.827,305.700 108.249 C 306.745 107.672,308.410 106.750,309.400 106.200 C 310.390 105.650,312.010 104.750,313.000 104.200 C 313.990 103.650,315.565 102.775,316.500 102.255 C 317.435 101.736,319.280 100.720,320.600 99.997 C 321.920 99.275,324.350 97.926,326.000 97.001 C 329.063 95.282,331.401 93.977,334.600 92.200 C 335.590 91.650,337.210 90.750,338.200 90.200 C 339.190 89.650,340.810 88.750,341.800 88.200 C 342.790 87.650,344.410 86.750,345.400 86.200 C 346.390 85.650,347.965 84.772,348.900 84.249 C 351.252 82.934,361.238 77.412,364.397 75.681 C 365.828 74.896,367.863 73.747,368.918 73.127 C 369.972 72.507,370.903 72.000,370.986 72.000 C 371.069 72.000,372.695 71.100,374.600 70.000 C 376.505 68.900,378.201 68.000,378.370 68.000 C 378.733 68.000,380.000 66.654,380.000 66.269 C 380.000 66.121,349.220 66.000,311.600 66.000 L 243.200 66.000 243.200 104.013 M156.000 98.200 C 156.000 115.470,155.915 129.600,155.812 129.600 C 155.709 129.600,154.944 129.212,154.112 128.738 C 153.280 128.265,151.880 127.500,151.000 127.038 C 150.120 126.577,149.310 126.110,149.200 126.000 C 149.090 125.890,148.280 125.422,147.400 124.961 C 146.520 124.499,144.990 123.669,144.000 123.116 C 143.010 122.563,141.120 121.521,139.800 120.801 C 138.480 120.081,136.230 118.822,134.800 118.004 C 133.370 117.186,131.210 115.977,130.000 115.317 C 128.790 114.657,126.990 113.662,126.000 113.108 C 125.010 112.553,123.210 111.581,122.000 110.949 C 120.790 110.317,119.710 109.710,119.600 109.600 C 119.490 109.490,118.680 109.023,117.800 108.562 C 116.920 108.100,115.525 107.335,114.700 106.862 C 112.268 105.465,110.937 104.722,104.200 101.003 C 100.680 99.060,97.170 97.112,96.400 96.673 C 95.630 96.235,94.100 95.392,93.000 94.800 C 91.900 94.208,90.280 93.308,89.400 92.800 C 88.520 92.292,86.900 91.392,85.800 90.800 C 84.700 90.208,83.080 89.310,82.200 88.805 C 81.320 88.300,79.790 87.437,78.800 86.888 C 77.810 86.339,74.660 84.591,71.800 83.004 C 68.940 81.417,65.790 79.667,64.800 79.115 C 63.104 78.170,61.675 77.375,57.400 75.000 C 56.410 74.450,54.835 73.575,53.900 73.055 C 52.965 72.536,51.120 71.521,49.800 70.800 C 45.338 68.364,44.000 67.525,44.000 67.162 C 44.000 66.948,66.853 66.800,100.000 66.800 L 156.000 66.800 156.000 98.200 M378.000 67.120 C 378.000 67.413,375.529 68.900,370.200 71.817 C 367.162 73.480,365.164 74.593,363.400 75.605 C 362.520 76.110,361.080 76.900,360.200 77.362 C 359.320 77.823,358.510 78.290,358.400 78.400 C 358.290 78.510,357.480 78.972,356.600 79.427 C 354.247 80.643,342.135 87.343,338.100 89.662 C 337.275 90.136,335.700 91.008,334.600 91.600 C 333.500 92.192,331.880 93.091,331.000 93.597 C 330.120 94.103,328.410 95.059,327.200 95.721 C 325.287 96.767,313.629 103.221,309.000 105.797 C 308.120 106.286,306.680 107.100,305.800 107.605 C 304.920 108.110,303.300 109.008,302.200 109.601 C 300.257 110.647,298.421 111.664,294.500 113.868 C 293.455 114.455,290.980 115.821,289.000 116.904 C 287.020 117.987,284.860 119.194,284.200 119.587 C 283.145 120.216,281.338 121.211,277.000 123.552 C 276.340 123.909,275.710 124.290,275.600 124.400 C 275.490 124.510,274.590 125.029,273.600 125.554 C 270.985 126.939,268.005 128.560,266.400 129.470 C 265.630 129.907,262.120 131.854,258.600 133.797 C 252.315 137.266,251.004 137.998,248.200 139.600 C 247.430 140.040,246.170 140.757,245.400 141.193 L 244.000 141.986 244.000 104.393 L 244.000 66.800 311.000 66.800 C 347.850 66.800,378.000 66.944,378.000 67.120 M0.000 102.571 C 0.000 102.665,0.495 102.999,1.100 103.315 C 3.005 104.307,6.538 106.240,8.200 107.200 C 9.080 107.708,10.786 108.648,11.991 109.288 C 13.196 109.929,14.366 110.595,14.591 110.768 C 14.816 110.942,16.172 111.719,17.603 112.496 C 20.453 114.041,30.335 119.499,33.200 121.110 C 34.190 121.667,35.900 122.607,37.000 123.199 C 38.100 123.792,39.720 124.690,40.600 125.195 C 42.505 126.288,44.546 127.424,47.800 129.199 C 49.120 129.919,51.370 131.178,52.800 131.996 C 54.230 132.814,56.390 134.023,57.600 134.683 C 59.707 135.833,61.334 136.734,65.500 139.061 C 66.545 139.645,68.300 140.607,69.400 141.199 C 70.500 141.792,72.120 142.691,73.000 143.199 C 75.120 144.421,77.927 145.980,84.528 149.600 C 87.537 151.250,89.999 152.735,89.999 152.900 C 90.000 153.065,69.750 153.200,45.000 153.200 C 15.267 153.200,0.000 153.336,0.000 153.600 C 0.000 154.043,91.278 154.189,91.720 153.747 C 92.163 153.304,89.917 151.908,80.200 146.587 C 79.100 145.984,77.155 144.886,75.879 144.146 C 74.602 143.406,73.485 142.800,73.396 142.800 C 73.308 142.800,72.372 142.293,71.318 141.673 C 70.263 141.053,68.228 139.904,66.797 139.119 C 63.587 137.360,53.643 131.861,51.200 130.495 C 50.210 129.941,48.680 129.089,47.800 128.600 C 46.920 128.111,45.390 127.262,44.400 126.712 C 43.410 126.163,41.970 125.359,41.200 124.926 C 39.998 124.249,32.296 119.973,26.400 116.708 C 25.410 116.160,23.700 115.211,22.600 114.600 C 21.500 113.989,19.835 113.063,18.900 112.544 C 17.965 112.025,16.390 111.150,15.400 110.600 C 14.410 110.050,12.790 109.150,11.800 108.600 C 8.383 106.702,6.191 105.476,3.464 103.941 C 0.926 102.511,0.000 102.145,0.000 102.571 M397.800 115.346 C 396.920 115.848,394.310 117.313,392.000 118.600 C 389.690 119.888,387.170 121.295,386.400 121.727 C 385.630 122.160,384.235 122.938,383.300 123.457 C 382.365 123.975,380.745 124.875,379.700 125.456 C 377.146 126.875,374.753 128.204,372.700 129.343 C 371.765 129.862,370.370 130.642,369.600 131.075 C 368.830 131.509,365.320 133.454,361.800 135.397 C 358.280 137.340,354.770 139.286,354.000 139.721 C 353.230 140.157,351.835 140.938,350.900 141.457 C 349.965 141.975,348.435 142.825,347.500 143.343 C 346.565 143.862,345.170 144.642,344.400 145.075 C 343.630 145.509,341.623 146.613,339.939 147.529 C 333.794 150.871,330.261 153.016,330.099 153.503 C 329.968 153.897,337.215 154.000,364.967 154.000 C 388.056 154.000,400.000 153.864,400.000 153.600 C 400.000 153.336,388.307 153.200,365.720 153.200 C 345.231 153.200,331.593 153.054,331.820 152.838 C 332.029 152.638,332.920 152.075,333.800 151.585 C 334.680 151.095,337.020 149.796,339.000 148.698 C 340.980 147.600,343.365 146.274,344.300 145.751 C 345.235 145.228,346.810 144.350,347.800 143.800 C 348.790 143.250,350.455 142.325,351.500 141.744 C 354.422 140.120,356.842 138.776,358.600 137.800 C 359.480 137.311,361.010 136.459,362.000 135.905 C 363.727 134.939,369.015 132.003,372.800 129.908 C 376.875 127.653,378.278 126.868,379.800 125.995 C 380.680 125.490,382.300 124.592,383.400 124.000 C 384.500 123.408,386.120 122.509,387.000 122.002 C 387.880 121.495,389.770 120.455,391.200 119.691 C 395.071 117.624,400.000 114.753,400.000 114.565 C 400.000 114.229,399.359 114.457,397.800 115.346 M0.000 246.400 C 0.000 246.664,11.667 246.800,34.200 246.800 C 56.733 246.800,68.400 246.936,68.400 247.200 C 68.400 247.420,68.236 247.600,68.035 247.600 C 67.834 247.600,66.439 248.292,64.935 249.139 C 63.431 249.985,60.400 251.677,58.200 252.897 C 56.000 254.118,53.480 255.523,52.600 256.020 C 51.720 256.517,50.280 257.300,49.400 257.762 C 48.520 258.223,47.710 258.690,47.600 258.800 C 47.490 258.910,46.680 259.377,45.800 259.838 C 44.920 260.300,43.480 261.092,42.600 261.599 C 41.720 262.106,39.830 263.145,38.400 263.910 C 36.970 264.674,34.450 266.060,32.800 266.991 C 31.150 267.922,28.720 269.275,27.400 269.997 C 24.146 271.778,22.105 272.913,20.200 274.000 C 19.320 274.502,17.835 275.338,16.900 275.857 C 13.271 277.871,11.536 278.836,9.900 279.751 C 3.309 283.438,0.746 284.800,0.399 284.800 C 0.180 284.800,0.000 284.980,0.000 285.200 C 0.000 285.786,0.233 285.717,2.522 284.446 C 3.665 283.811,7.120 281.899,10.200 280.197 C 16.811 276.543,18.458 275.624,20.600 274.395 C 21.480 273.890,23.100 272.992,24.200 272.399 C 25.300 271.807,27.010 270.870,28.000 270.316 C 28.990 269.763,30.880 268.720,32.200 267.998 C 33.520 267.276,36.580 265.569,39.000 264.204 C 41.420 262.840,44.480 261.130,45.800 260.406 C 47.120 259.682,48.965 258.664,49.900 258.145 C 50.835 257.625,52.455 256.725,53.500 256.144 C 54.545 255.563,56.120 254.689,57.000 254.201 C 57.880 253.713,59.230 252.957,60.000 252.521 C 60.770 252.085,62.840 250.948,64.600 249.995 C 68.458 247.905,70.000 246.871,70.000 246.373 C 70.000 246.145,56.362 246.000,35.000 246.000 C 11.933 246.000,0.000 246.136,0.000 246.400 M308.280 246.253 C 307.890 246.643,309.364 247.626,314.800 250.597 C 317.550 252.100,320.430 253.686,321.200 254.121 C 321.970 254.557,323.365 255.338,324.300 255.857 C 325.235 256.375,326.765 257.225,327.700 257.743 C 328.635 258.262,330.030 259.041,330.800 259.474 C 331.990 260.144,337.732 263.332,345.800 267.803 C 349.161 269.666,350.912 270.639,353.000 271.805 C 354.100 272.420,355.986 273.447,357.191 274.088 C 358.396 274.728,359.566 275.395,359.791 275.568 C 360.016 275.742,361.372 276.519,362.803 277.296 C 365.368 278.687,374.982 283.993,378.300 285.849 C 379.235 286.372,380.810 287.250,381.800 287.800 C 382.790 288.350,384.455 289.276,385.500 289.858 C 386.545 290.440,388.390 291.461,389.600 292.127 C 390.810 292.793,392.520 293.759,393.400 294.273 C 396.525 296.099,399.684 297.650,399.879 297.454 C 400.060 297.273,398.563 296.396,395.400 294.828 C 394.740 294.501,394.110 294.136,394.000 294.017 C 393.890 293.898,393.080 293.413,392.200 292.940 C 391.320 292.467,389.880 291.677,389.000 291.183 C 386.228 289.630,384.276 288.552,381.800 287.206 C 380.480 286.489,378.860 285.580,378.200 285.187 C 377.125 284.547,373.080 282.310,367.400 279.214 C 366.300 278.614,364.680 277.708,363.800 277.200 C 362.920 276.692,361.300 275.792,360.200 275.200 C 359.100 274.608,357.525 273.736,356.700 273.262 C 354.154 271.799,352.762 271.023,348.000 268.410 C 345.470 267.022,342.590 265.437,341.600 264.887 C 338.127 262.960,336.184 261.879,334.400 260.883 C 333.410 260.331,331.880 259.501,331.000 259.039 C 330.120 258.578,329.310 258.110,329.200 258.000 C 329.090 257.890,328.460 257.509,327.800 257.152 C 324.956 255.617,321.532 253.726,317.800 251.630 C 315.600 250.394,312.945 248.937,311.900 248.392 C 310.855 247.847,310.000 247.266,310.000 247.101 C 310.000 246.935,330.250 246.800,355.000 246.800 C 384.733 246.800,400.000 246.664,400.000 246.400 C 400.000 245.957,308.722 245.811,308.280 246.253 M154.992 257.935 C 154.776 258.131,153.610 258.830,152.400 259.488 C 151.190 260.146,149.345 261.160,148.300 261.742 C 147.255 262.324,145.590 263.250,144.600 263.800 C 141.401 265.577,139.063 266.882,136.000 268.601 C 134.350 269.526,131.920 270.875,130.600 271.597 C 127.198 273.459,125.240 274.549,123.400 275.605 C 122.520 276.110,120.900 277.008,119.800 277.601 C 118.700 278.193,116.990 279.133,116.000 279.690 C 111.779 282.065,96.434 290.600,94.600 291.593 C 93.500 292.189,91.880 293.092,91.000 293.600 C 90.120 294.108,88.500 295.008,87.400 295.600 C 86.300 296.192,84.770 297.035,84.000 297.473 C 83.230 297.912,79.720 299.860,76.200 301.803 C 72.680 303.746,69.170 305.691,68.400 306.125 C 67.630 306.558,66.235 307.338,65.300 307.857 C 64.365 308.375,62.790 309.250,61.800 309.800 C 60.810 310.350,59.145 311.272,58.100 311.849 C 57.055 312.427,55.660 313.215,55.000 313.601 C 54.340 313.986,52.810 314.844,51.600 315.505 C 45.572 318.802,35.952 324.141,33.400 325.605 C 32.520 326.110,30.900 327.008,29.800 327.600 C 28.700 328.192,27.125 329.064,26.300 329.538 C 25.475 330.012,24.159 330.763,23.374 331.208 C 20.995 332.555,20.000 333.274,20.000 333.646 C 20.000 333.850,48.994 334.000,88.402 334.000 L 156.804 334.000 156.702 295.905 C 156.595 255.847,156.622 256.445,154.992 257.935 M156.000 295.600 L 156.000 333.200 89.267 333.200 C 52.563 333.200,22.414 333.081,22.269 332.936 C 21.936 332.603,22.618 332.142,26.600 330.005 C 28.360 329.061,29.980 328.159,30.200 328.002 C 30.420 327.844,31.590 327.175,32.800 326.516 C 34.010 325.856,35.855 324.840,36.900 324.258 C 37.945 323.676,39.565 322.775,40.500 322.257 C 41.435 321.738,42.830 320.958,43.600 320.525 C 44.370 320.091,47.880 318.146,51.400 316.203 C 54.920 314.260,58.430 312.312,59.200 311.873 C 59.970 311.435,61.500 310.592,62.600 310.000 C 63.700 309.408,65.320 308.508,66.200 308.000 C 67.080 307.492,68.520 306.700,69.400 306.238 C 70.280 305.777,71.090 305.310,71.200 305.199 C 71.310 305.089,71.937 304.729,72.593 304.399 C 73.249 304.070,76.096 302.495,78.920 300.900 C 81.745 299.305,84.123 298.000,84.206 298.000 C 84.289 298.000,85.402 297.394,86.679 296.654 C 89.657 294.928,92.577 293.300,94.600 292.239 C 95.480 291.778,96.290 291.310,96.400 291.200 C 96.510 291.090,97.320 290.622,98.200 290.161 C 99.080 289.699,100.655 288.844,101.700 288.261 C 106.075 285.818,107.513 285.022,109.600 283.889 C 110.810 283.231,112.340 282.380,113.000 281.996 C 114.568 281.085,117.696 279.349,120.200 278.001 C 121.300 277.408,122.920 276.508,123.800 276.000 C 124.680 275.492,126.300 274.592,127.400 274.000 C 128.500 273.408,130.120 272.510,131.000 272.005 C 134.135 270.206,147.978 262.543,152.600 260.048 C 153.260 259.691,153.890 259.310,154.000 259.200 C 154.197 259.003,155.705 258.069,155.900 258.024 C 155.955 258.011,156.000 274.920,156.000 295.600 M243.467 269.867 C 243.320 270.013,243.200 284.503,243.200 302.067 L 243.200 334.000 300.600 334.000 C 346.483 334.000,358.000 333.899,358.000 333.496 C 358.000 332.971,357.418 332.544,354.532 330.954 C 353.579 330.429,351.990 329.550,351.000 329.000 C 350.010 328.450,348.390 327.550,347.400 327.000 C 346.410 326.450,344.790 325.550,343.800 325.000 C 340.398 323.110,338.194 321.879,335.200 320.197 C 333.550 319.269,330.940 317.830,329.400 316.997 C 327.860 316.165,326.420 315.355,326.200 315.198 C 325.980 315.041,324.360 314.136,322.600 313.188 C 320.840 312.240,318.770 311.109,318.000 310.675 C 317.230 310.242,315.790 309.440,314.800 308.894 C 313.810 308.348,312.460 307.585,311.800 307.199 C 311.140 306.814,309.520 305.910,308.200 305.191 C 306.880 304.472,304.450 303.126,302.800 302.201 C 296.671 298.763,295.756 298.254,293.800 297.201 C 292.700 296.608,291.080 295.708,290.200 295.200 C 289.320 294.692,287.700 293.792,286.600 293.199 C 285.500 292.607,283.700 291.618,282.600 291.002 C 277.495 288.144,267.162 282.398,265.000 281.215 C 263.680 280.493,262.060 279.586,261.400 279.201 C 260.740 278.815,259.390 278.052,258.400 277.506 C 257.410 276.960,255.970 276.158,255.200 275.725 C 254.430 275.291,252.450 274.201,250.800 273.303 C 249.150 272.405,246.990 271.206,246.000 270.640 C 244.047 269.522,243.866 269.467,243.467 269.867 M246.459 271.538 C 247.637 272.164,249.320 273.092,250.200 273.600 C 251.080 274.108,252.700 275.008,253.800 275.601 C 255.837 276.698,256.477 277.054,264.200 281.399 C 266.620 282.761,269.770 284.505,271.200 285.276 C 272.630 286.046,274.520 287.092,275.400 287.600 C 276.280 288.108,277.900 289.008,279.000 289.600 C 280.100 290.192,281.675 291.064,282.500 291.538 C 284.986 292.966,286.452 293.784,289.672 295.535 C 291.362 296.454,294.490 298.195,296.624 299.403 C 298.757 300.611,300.555 301.600,300.620 301.600 C 300.684 301.600,302.236 302.455,304.068 303.501 C 305.901 304.547,307.940 305.671,308.600 306.000 C 309.260 306.329,309.890 306.689,310.000 306.799 C 310.110 306.910,310.920 307.377,311.800 307.838 C 312.680 308.300,314.075 309.065,314.900 309.538 C 317.332 310.935,318.663 311.678,325.400 315.397 C 328.920 317.340,332.430 319.288,333.200 319.727 C 333.970 320.165,335.500 321.008,336.600 321.600 C 337.700 322.192,339.320 323.092,340.200 323.600 C 341.080 324.108,342.700 325.008,343.800 325.600 C 344.900 326.192,346.520 327.091,347.400 327.597 C 348.280 328.103,349.900 329.016,351.000 329.625 C 355.616 332.181,356.388 332.678,356.134 332.932 C 355.987 333.080,330.697 333.200,299.933 333.200 L 244.000 333.200 244.000 301.800 C 244.000 284.530,244.072 270.400,244.159 270.400 C 244.247 270.400,245.282 270.912,246.459 271.538 " stroke="none" fill="#6494cc" fill-rule="evenodd"></path><path id="path4" d="M245.068 152.966 C 244.848 153.540,246.864 153.591,266.513 153.504 L 288.200 153.407 267.021 153.300 C 252.459 153.226,245.760 153.059,245.577 152.763 C 245.408 152.489,245.223 152.563,245.068 152.966 " stroke="none" fill="#d8556f" fill-rule="evenodd"></path><path id="path5" d="" stroke="none" fill="#c46686" fill-rule="evenodd"></path><path id="path6" d="M0.004 66.300 C 0.008 66.639,5.240 69.693,5.452 69.481 C 5.528 69.406,4.512 68.738,3.195 67.997 C 1.878 67.256,0.800 66.504,0.800 66.325 C 0.800 66.146,0.620 66.000,0.400 66.000 C 0.180 66.000,0.002 66.135,0.004 66.300 M174.899 120.299 L 174.800 174.798 87.300 174.900 L -0.200 175.002 87.313 175.101 C 157.028 175.180,174.864 175.098,175.015 174.700 C 175.120 174.425,175.159 149.810,175.101 120.000 L 174.997 65.800 174.899 120.299 M224.998 120.400 L 225.000 175.000 312.400 175.001 L 399.800 175.003 312.501 174.900 L 225.203 174.798 225.099 120.299 L 224.996 65.800 224.998 120.400 M6.200 69.890 C 6.420 70.098,7.500 70.759,8.600 71.359 C 9.700 71.959,10.240 72.155,9.800 71.794 C 8.905 71.059,5.573 69.297,6.200 69.890 M11.200 72.822 C 12.233 73.526,14.800 74.825,14.800 74.642 C 14.800 74.433,11.205 72.397,10.850 72.406 C 10.712 72.409,10.870 72.596,11.200 72.822 M384.800 74.836 C 384.136 75.379,384.069 75.515,384.600 75.240 C 385.905 74.566,386.628 74.012,386.200 74.015 C 385.980 74.017,385.350 74.386,384.800 74.836 M15.600 75.220 C 16.987 76.161,17.778 76.435,16.800 75.636 C 16.250 75.186,15.620 74.817,15.400 74.815 C 15.180 74.813,15.270 74.996,15.600 75.220 M22.400 78.990 C 22.400 79.094,22.985 79.465,23.700 79.814 L 25.000 80.448 24.000 79.633 C 23.037 78.848,22.400 78.592,22.400 78.990 M29.600 82.966 C 29.600 83.235,33.307 85.227,33.482 85.052 C 33.570 84.964,32.800 84.421,31.770 83.846 C 29.863 82.780,29.600 82.673,29.600 82.966 M365.500 85.477 C 364.456 86.058,363.663 86.597,363.740 86.673 C 363.900 86.834,367.600 84.814,367.600 84.566 C 367.600 84.315,367.543 84.340,365.500 85.477 M34.200 85.484 C 34.420 85.709,35.860 86.575,37.400 87.409 C 38.940 88.243,40.020 88.741,39.800 88.516 C 39.580 88.291,38.140 87.425,36.600 86.591 C 35.060 85.757,33.980 85.259,34.200 85.484 M359.600 88.836 C 358.936 89.379,358.869 89.515,359.400 89.240 C 360.705 88.566,361.428 88.012,361.000 88.015 C 360.780 88.017,360.150 88.386,359.600 88.836 M40.800 89.220 C 42.187 90.161,42.978 90.435,42.000 89.636 C 41.450 89.186,40.820 88.817,40.600 88.815 C 40.380 88.813,40.470 88.996,40.800 89.220 M43.600 90.820 C 44.987 91.761,45.778 92.035,44.800 91.236 C 44.250 90.786,43.620 90.417,43.400 90.415 C 43.180 90.413,43.270 90.596,43.600 90.820 M352.400 92.836 C 351.736 93.379,351.669 93.515,352.200 93.240 C 353.505 92.566,354.228 92.012,353.800 92.015 C 353.580 92.017,352.950 92.386,352.400 92.836 M2.200 92.684 C 2.420 92.909,3.860 93.775,5.400 94.609 C 6.940 95.443,8.020 95.941,7.800 95.716 C 7.580 95.491,6.140 94.625,4.600 93.791 C 3.060 92.957,1.980 92.459,2.200 92.684 M395.119 93.923 C 393.644 94.751,392.294 95.588,392.119 95.782 C 391.747 96.194,397.215 93.262,397.780 92.746 C 398.471 92.116,397.830 92.399,395.119 93.923 M48.000 93.220 C 49.387 94.161,50.178 94.435,49.200 93.636 C 48.650 93.186,48.020 92.817,47.800 92.815 C 47.580 92.813,47.670 92.996,48.000 93.220 M348.300 95.029 C 346.805 95.840,346.896 96.178,348.400 95.400 C 349.060 95.059,349.600 94.694,349.600 94.590 C 349.600 94.332,349.557 94.347,348.300 95.029 M52.000 95.379 C 52.000 95.489,52.540 95.859,53.200 96.200 C 53.860 96.541,54.400 96.731,54.400 96.621 C 54.400 96.511,53.860 96.141,53.200 95.800 C 52.540 95.459,52.000 95.269,52.000 95.379 M8.400 96.179 C 8.400 96.289,8.940 96.659,9.600 97.000 C 10.260 97.341,10.800 97.531,10.800 97.421 C 10.800 97.311,10.260 96.941,9.600 96.600 C 8.940 96.259,8.400 96.069,8.400 96.179 M11.200 97.793 C 11.200 97.900,12.100 98.443,13.200 99.000 C 15.715 100.275,15.821 100.016,13.350 98.634 C 11.427 97.560,11.200 97.471,11.200 97.793 M341.100 99.029 C 339.605 99.840,339.696 100.178,341.200 99.400 C 341.860 99.059,342.400 98.694,342.400 98.590 C 342.400 98.332,342.357 98.347,341.100 99.029 M385.900 99.029 C 384.405 99.840,384.496 100.178,386.000 99.400 C 386.660 99.059,387.200 98.694,387.200 98.590 C 387.200 98.332,387.157 98.347,385.900 99.029 M59.200 99.341 C 59.200 99.608,62.890 101.643,63.063 101.471 C 63.140 101.393,62.303 100.839,61.202 100.240 C 60.101 99.640,59.200 99.236,59.200 99.341 M15.600 100.179 C 15.600 100.289,16.140 100.659,16.800 101.000 C 17.460 101.341,18.000 101.531,18.000 101.421 C 18.000 101.311,17.460 100.941,16.800 100.600 C 16.140 100.259,15.600 100.069,15.600 100.179 M63.600 101.779 C 63.600 101.889,64.140 102.259,64.800 102.600 C 65.460 102.941,66.000 103.131,66.000 103.021 C 66.000 102.911,65.460 102.541,64.800 102.200 C 64.140 101.859,63.600 101.669,63.600 101.779 M20.000 102.579 C 20.000 102.689,20.540 103.059,21.200 103.400 C 21.860 103.741,22.400 103.931,22.400 103.821 C 22.400 103.711,21.860 103.341,21.200 103.000 C 20.540 102.659,20.000 102.469,20.000 102.579 M332.319 103.923 C 330.844 104.751,329.494 105.588,329.319 105.782 C 328.947 106.194,334.415 103.262,334.980 102.746 C 335.671 102.116,335.030 102.399,332.319 103.923 M66.400 103.341 C 66.400 103.608,70.090 105.643,70.263 105.471 C 70.340 105.393,69.503 104.839,68.402 104.240 C 67.301 103.640,66.400 103.236,66.400 103.341 M25.200 105.564 C 25.750 106.014,26.380 106.383,26.600 106.385 C 27.028 106.388,26.305 105.834,25.000 105.160 C 24.469 104.885,24.536 105.021,25.200 105.564 M327.200 106.836 C 326.536 107.379,326.469 107.515,327.000 107.240 C 328.305 106.566,329.028 106.012,328.600 106.015 C 328.380 106.017,327.750 106.386,327.200 106.836 M72.800 106.990 C 72.800 107.094,73.385 107.465,74.100 107.814 L 75.400 108.448 74.400 107.633 C 73.437 106.848,72.800 106.592,72.800 106.990 M30.000 108.141 C 30.000 108.408,33.690 110.443,33.863 110.271 C 33.940 110.193,33.103 109.639,32.002 109.040 C 30.901 108.440,30.000 108.036,30.000 108.141 M367.000 109.600 C 366.340 110.037,365.980 110.392,366.200 110.388 C 366.601 110.382,368.776 108.823,368.400 108.812 C 368.290 108.808,367.660 109.163,367.000 109.600 M77.200 109.390 C 77.200 109.494,77.785 109.865,78.500 110.214 L 79.800 110.848 78.800 110.033 C 77.837 109.248,77.200 108.992,77.200 109.390 M320.000 110.833 L 319.000 111.648 320.300 111.014 C 321.015 110.665,321.600 110.294,321.600 110.190 C 321.600 109.792,320.963 110.048,320.000 110.833 M34.600 110.684 C 34.820 110.909,36.260 111.775,37.800 112.609 C 39.340 113.443,40.420 113.941,40.200 113.716 C 39.980 113.491,38.540 112.625,37.000 111.791 C 35.460 110.957,34.380 110.459,34.600 110.684 M80.000 110.990 C 80.000 111.094,80.585 111.465,81.300 111.814 L 82.600 112.448 81.600 111.633 C 80.637 110.848,80.000 110.592,80.000 110.990 M361.511 112.560 C 359.416 113.805,359.084 114.263,361.000 113.265 C 363.005 112.220,363.919 111.603,363.400 111.644 C 363.180 111.661,362.330 112.074,361.511 112.560 M40.800 114.179 C 40.800 114.289,41.340 114.659,42.000 115.000 C 42.660 115.341,43.200 115.531,43.200 115.421 C 43.200 115.311,42.660 114.941,42.000 114.600 C 41.340 114.259,40.800 114.069,40.800 114.179 M311.500 115.429 C 310.005 116.240,310.096 116.578,311.600 115.800 C 312.260 115.459,312.800 115.094,312.800 114.990 C 312.800 114.732,312.757 114.747,311.500 115.429 M89.600 116.367 C 90.563 117.152,91.200 117.408,91.200 117.010 C 91.200 116.906,90.615 116.535,89.900 116.186 L 88.600 115.552 89.600 116.367 M45.200 116.579 C 45.200 116.689,45.740 117.059,46.400 117.400 C 47.060 117.741,47.600 117.931,47.600 117.821 C 47.600 117.711,47.060 117.341,46.400 117.000 C 45.740 116.659,45.200 116.469,45.200 116.579 M308.700 117.029 C 307.205 117.840,307.296 118.178,308.800 117.400 C 309.460 117.059,310.000 116.694,310.000 116.590 C 310.000 116.332,309.957 116.347,308.700 117.029 M353.500 117.029 C 352.005 117.840,352.096 118.178,353.600 117.400 C 354.260 117.059,354.800 116.694,354.800 116.590 C 354.800 116.332,354.757 116.347,353.500 117.029 M91.600 117.379 C 91.600 117.489,92.140 117.859,92.800 118.200 C 93.460 118.541,94.000 118.731,94.000 118.621 C 94.000 118.511,93.460 118.141,92.800 117.800 C 92.140 117.459,91.600 117.269,91.600 117.379 M48.000 118.179 C 48.000 118.289,48.540 118.659,49.200 119.000 C 49.860 119.341,50.400 119.531,50.400 119.421 C 50.400 119.311,49.860 118.941,49.200 118.600 C 48.540 118.259,48.000 118.069,48.000 118.179 M96.200 119.913 C 96.420 120.139,97.230 120.670,98.000 121.093 C 98.770 121.516,100.615 122.538,102.100 123.365 C 103.585 124.192,104.800 124.779,104.800 124.669 C 104.800 124.484,102.859 123.354,97.800 120.593 C 96.700 119.992,95.980 119.686,96.200 119.913 M53.200 121.167 C 54.163 121.952,54.800 122.208,54.800 121.810 C 54.800 121.706,54.215 121.335,53.500 120.986 L 52.200 120.352 53.200 121.167 M300.700 121.477 C 299.656 122.058,298.863 122.597,298.940 122.673 C 299.100 122.834,302.800 120.814,302.800 120.566 C 302.800 120.315,302.743 120.340,300.700 121.477 M346.300 121.029 C 344.805 121.840,344.896 122.178,346.400 121.400 C 347.060 121.059,347.600 120.694,347.600 120.590 C 347.600 120.332,347.557 120.347,346.300 121.029 M57.600 123.564 C 58.150 124.014,58.780 124.383,59.000 124.385 C 59.428 124.388,58.705 123.834,57.400 123.160 C 56.869 122.885,56.936 123.021,57.600 123.564 M341.800 123.600 C 341.140 124.037,340.780 124.392,341.000 124.388 C 341.401 124.382,343.576 122.823,343.200 122.812 C 343.090 122.808,342.460 123.163,341.800 123.600 M294.800 124.836 C 294.136 125.379,294.069 125.515,294.600 125.240 C 295.905 124.566,296.628 124.012,296.200 124.015 C 295.980 124.017,295.350 124.386,294.800 124.836 M59.800 124.706 C 60.368 125.301,63.263 126.870,63.449 126.684 C 63.534 126.599,62.658 126.025,61.502 125.409 C 60.346 124.792,59.580 124.476,59.800 124.706 M338.300 125.477 C 337.256 126.058,336.463 126.597,336.540 126.673 C 336.700 126.834,340.400 124.814,340.400 124.566 C 340.400 124.315,340.343 124.340,338.300 125.477 M105.600 125.220 C 106.987 126.161,107.778 126.435,106.800 125.636 C 106.250 125.186,105.620 124.817,105.400 124.815 C 105.180 124.813,105.270 124.996,105.600 125.220 M64.800 127.564 C 65.350 128.014,65.980 128.383,66.200 128.385 C 66.628 128.388,65.905 127.834,64.600 127.160 C 64.069 126.885,64.136 127.021,64.800 127.564 M112.400 128.990 C 112.400 129.094,112.985 129.465,113.700 129.814 L 115.000 130.448 114.000 129.633 C 113.037 128.848,112.400 128.592,112.400 128.990 M69.200 130.022 C 70.233 130.726,72.800 132.025,72.800 131.842 C 72.800 131.633,69.205 129.597,68.850 129.606 C 68.712 129.609,68.870 129.796,69.200 130.022 M329.111 130.560 C 327.016 131.805,326.684 132.263,328.600 131.265 C 330.605 130.220,331.519 129.603,331.000 129.644 C 330.780 129.661,329.930 130.074,329.111 130.560 M283.500 131.029 C 282.005 131.840,282.096 132.178,283.600 131.400 C 284.260 131.059,284.800 130.694,284.800 130.590 C 284.800 130.332,284.757 130.347,283.500 131.029 M116.800 131.379 C 116.800 131.489,117.340 131.859,118.000 132.200 C 118.660 132.541,119.200 132.731,119.200 132.621 C 119.200 132.511,118.660 132.141,118.000 131.800 C 117.340 131.459,116.800 131.269,116.800 131.379 M77.600 134.579 C 77.600 134.689,78.140 135.059,78.800 135.400 C 79.460 135.741,80.000 135.931,80.000 135.821 C 80.000 135.711,79.460 135.341,78.800 135.000 C 78.140 134.659,77.600 134.469,77.600 134.579 M275.500 135.477 C 274.456 136.058,273.663 136.597,273.740 136.673 C 273.900 136.834,277.600 134.814,277.600 134.566 C 277.600 134.315,277.543 134.340,275.500 135.477 M321.100 135.029 C 319.605 135.840,319.696 136.178,321.200 135.400 C 321.860 135.059,322.400 134.694,322.400 134.590 C 322.400 134.332,322.357 134.347,321.100 135.029 M124.000 135.341 C 124.000 135.608,127.690 137.643,127.863 137.471 C 127.940 137.393,127.103 136.839,126.002 136.240 C 124.901 135.640,124.000 135.236,124.000 135.341 M85.600 139.167 C 86.563 139.952,87.200 140.208,87.200 139.810 C 87.200 139.706,86.615 139.335,85.900 138.986 L 84.600 138.352 85.600 139.167 M130.800 139.220 C 132.187 140.161,132.978 140.435,132.000 139.636 C 131.450 139.186,130.820 138.817,130.600 138.815 C 130.380 138.813,130.470 138.996,130.800 139.220 M133.600 140.822 C 133.930 141.047,134.920 141.604,135.800 142.059 C 137.769 143.079,137.176 142.394,135.088 141.238 C 133.528 140.374,132.537 140.097,133.600 140.822 M265.500 141.029 C 264.005 141.840,264.096 142.178,265.600 141.400 C 266.260 141.059,266.800 140.694,266.800 140.590 C 266.800 140.332,266.757 140.347,265.500 141.029 M90.000 141.564 C 90.550 142.014,91.180 142.383,91.400 142.385 C 91.828 142.388,91.105 141.834,89.800 141.160 C 89.269 140.885,89.336 141.021,90.000 141.564 M309.400 141.600 C 308.740 142.037,308.380 142.392,308.600 142.388 C 309.001 142.382,311.176 140.823,310.800 140.812 C 310.690 140.808,310.060 141.163,309.400 141.600 M262.400 142.836 C 261.736 143.379,261.669 143.515,262.200 143.240 C 263.505 142.566,264.228 142.012,263.800 142.015 C 263.580 142.017,262.950 142.386,262.400 142.836 M137.600 142.990 C 137.600 143.094,138.185 143.465,138.900 143.814 L 140.200 144.448 139.200 143.633 C 138.237 142.848,137.600 142.592,137.600 142.990 M304.296 144.358 C 301.860 145.787,301.319 146.344,303.400 145.280 C 304.945 144.491,306.810 143.218,306.400 143.233 C 306.290 143.237,305.343 143.743,304.296 144.358 M94.000 143.703 C 94.440 144.170,98.507 146.426,98.650 146.283 C 98.735 146.198,97.860 145.605,96.706 144.965 C 94.492 143.736,93.670 143.352,94.000 143.703 M258.300 145.029 C 256.805 145.840,256.896 146.178,258.400 145.400 C 259.060 145.059,259.600 144.694,259.600 144.590 C 259.600 144.332,259.557 144.347,258.300 145.029 M142.000 145.390 C 142.000 145.494,142.585 145.865,143.300 146.214 L 144.600 146.848 143.600 146.033 C 142.637 145.248,142.000 144.992,142.000 145.390 M102.800 148.579 C 102.800 148.689,103.340 149.059,104.000 149.400 C 104.660 149.741,105.200 149.931,105.200 149.821 C 105.200 149.711,104.660 149.341,104.000 149.000 C 103.340 148.659,102.800 148.469,102.800 148.579 M295.900 149.029 C 294.405 149.840,294.496 150.178,296.000 149.400 C 296.660 149.059,297.200 148.694,297.200 148.590 C 297.200 148.332,297.157 148.347,295.900 149.029 M149.200 149.379 C 149.200 149.489,149.740 149.859,150.400 150.200 C 151.060 150.541,151.600 150.731,151.600 150.621 C 151.600 150.511,151.060 150.141,150.400 149.800 C 149.740 149.459,149.200 149.269,149.200 149.379 M105.600 150.179 C 105.600 150.289,106.140 150.659,106.800 151.000 C 107.460 151.341,108.000 151.531,108.000 151.421 C 108.000 151.311,107.460 150.941,106.800 150.600 C 106.140 150.259,105.600 150.069,105.600 150.179 M293.100 150.629 C 291.605 151.440,291.696 151.778,293.200 151.000 C 293.860 150.659,294.400 150.294,294.400 150.190 C 294.400 149.932,294.357 149.947,293.100 150.629 M154.600 152.550 L 155.800 153.571 134.080 153.586 C 115.374 153.598,112.197 153.515,111.180 152.990 C 110.531 152.654,110.000 152.469,110.000 152.579 C 110.000 153.863,112.322 154.000,134.113 154.000 C 157.984 154.000,158.261 153.973,154.392 152.028 C 153.536 151.597,153.564 151.669,154.600 152.550 M244.480 152.880 C 244.216 153.144,244.000 153.504,244.000 153.680 C 244.000 154.085,287.888 154.105,288.138 153.700 C 288.240 153.535,278.535 153.448,266.572 153.507 C 247.265 153.601,244.846 153.545,245.053 153.007 C 245.333 152.276,245.129 152.231,244.480 152.880 M87.499 225.100 L 174.797 225.202 174.901 279.501 L 175.004 333.800 175.002 279.400 L 175.000 225.000 87.600 224.999 L 0.200 224.997 87.499 225.100 M224.985 225.300 C 224.880 225.575,224.841 250.190,224.899 280.000 L 225.003 334.200 225.101 279.701 L 225.200 225.202 312.700 225.100 L 400.200 224.998 312.687 224.899 C 242.972 224.820,225.136 224.902,224.985 225.300 M111.862 246.300 C 111.760 246.465,121.584 246.552,133.693 246.493 C 154.692 246.391,155.684 246.419,155.155 247.093 C 154.651 247.735,154.664 247.750,155.300 247.251 C 155.685 246.949,156.000 246.544,156.000 246.351 C 156.000 245.924,112.126 245.873,111.862 246.300 M243.880 246.253 C 243.741 246.392,244.026 246.817,244.514 247.197 C 245.598 248.041,248.000 249.296,248.000 249.018 C 248.000 248.907,247.292 248.455,246.427 248.014 C 245.562 247.573,244.739 247.024,244.597 246.796 C 244.421 246.510,251.258 246.415,266.532 246.490 C 278.738 246.551,288.640 246.465,288.538 246.300 C 288.315 245.938,244.241 245.892,243.880 246.253 M153.100 248.229 C 151.605 249.040,151.696 249.378,153.200 248.600 C 153.860 248.259,154.400 247.894,154.400 247.790 C 154.400 247.532,154.357 247.547,153.100 248.229 M292.000 248.541 C 292.000 248.808,295.690 250.843,295.863 250.671 C 295.940 250.593,295.103 250.039,294.002 249.440 C 292.901 248.840,292.000 248.436,292.000 248.541 M248.400 249.390 C 248.400 249.494,248.985 249.865,249.700 250.214 L 251.000 250.848 250.000 250.033 C 249.037 249.248,248.400 248.992,248.400 249.390 M103.900 250.629 C 102.405 251.440,102.496 251.778,104.000 251.000 C 104.660 250.659,105.200 250.294,105.200 250.190 C 105.200 249.932,105.157 249.947,103.900 250.629 M296.400 250.979 C 296.400 251.089,296.940 251.459,297.600 251.800 C 298.260 252.141,298.800 252.331,298.800 252.221 C 298.800 252.111,298.260 251.741,297.600 251.400 C 296.940 251.059,296.400 250.869,296.400 250.979 M99.400 253.200 C 98.740 253.637,98.380 253.992,98.600 253.988 C 99.001 253.982,101.176 252.423,100.800 252.412 C 100.690 252.408,100.060 252.763,99.400 253.200 M299.200 252.541 C 299.200 252.808,302.890 254.843,303.063 254.671 C 303.140 254.593,302.303 254.039,301.202 253.440 C 300.101 252.840,299.200 252.436,299.200 252.541 M255.600 253.366 C 255.600 253.635,259.307 255.627,259.482 255.452 C 259.570 255.364,258.800 254.821,257.770 254.246 C 255.863 253.180,255.600 253.073,255.600 253.366 M94.400 256.036 C 93.736 256.579,93.669 256.715,94.200 256.440 C 95.505 255.766,96.228 255.212,95.800 255.215 C 95.580 255.217,94.950 255.586,94.400 256.036 M306.000 256.420 C 307.387 257.361,308.178 257.635,307.200 256.836 C 306.650 256.386,306.020 256.017,305.800 256.015 C 305.580 256.013,305.670 256.196,306.000 256.420 M262.800 257.359 C 262.800 257.651,266.510 259.623,266.701 259.433 C 266.799 259.334,265.962 258.789,264.840 258.220 C 263.718 257.652,262.800 257.264,262.800 257.359 M90.300 258.229 C 88.805 259.040,88.896 259.378,90.400 258.600 C 91.060 258.259,91.600 257.894,91.600 257.790 C 91.600 257.532,91.557 257.547,90.300 258.229 M308.800 258.022 C 309.130 258.247,310.120 258.804,311.000 259.259 C 312.969 260.279,312.376 259.594,310.288 258.438 C 308.728 257.574,307.737 257.297,308.800 258.022 M134.300 258.629 C 132.805 259.440,132.896 259.778,134.400 259.000 C 135.060 258.659,135.600 258.294,135.600 258.190 C 135.600 257.932,135.557 257.947,134.300 258.629 M267.400 259.884 C 267.620 260.109,269.060 260.975,270.600 261.809 C 272.140 262.643,273.220 263.141,273.000 262.916 C 272.780 262.691,271.340 261.825,269.800 260.991 C 268.260 260.157,267.180 259.659,267.400 259.884 M312.800 260.190 C 312.800 260.294,313.385 260.665,314.100 261.014 L 315.400 261.648 314.400 260.833 C 313.437 260.048,312.800 259.792,312.800 260.190 M129.800 261.200 C 129.140 261.637,128.780 261.992,129.000 261.988 C 129.401 261.982,131.576 260.423,131.200 260.412 C 131.090 260.408,130.460 260.763,129.800 261.200 M317.200 262.590 C 317.200 262.694,317.785 263.065,318.500 263.414 L 319.800 264.048 318.800 263.233 C 317.837 262.448,317.200 262.192,317.200 262.590 M273.600 263.390 C 273.600 263.494,274.185 263.865,274.900 264.214 L 276.200 264.848 275.200 264.033 C 274.237 263.248,273.600 262.992,273.600 263.390 M78.700 264.629 C 77.205 265.440,77.296 265.778,78.800 265.000 C 79.460 264.659,80.000 264.294,80.000 264.190 C 80.000 263.932,79.957 263.947,78.700 264.629 M321.600 264.979 C 321.600 265.089,322.140 265.459,322.800 265.800 C 323.460 266.141,324.000 266.331,324.000 266.221 C 324.000 266.111,323.460 265.741,322.800 265.400 C 322.140 265.059,321.600 264.869,321.600 264.979 M75.900 266.229 C 74.405 267.040,74.496 267.378,76.000 266.600 C 76.660 266.259,77.200 265.894,77.200 265.790 C 77.200 265.532,77.157 265.547,75.900 266.229 M120.700 266.229 C 119.205 267.040,119.296 267.378,120.800 266.600 C 121.460 266.259,122.000 265.894,122.000 265.790 C 122.000 265.532,121.957 265.547,120.700 266.229 M278.000 265.779 C 278.000 265.889,278.540 266.259,279.200 266.600 C 279.860 266.941,280.400 267.131,280.400 267.021 C 280.400 266.911,279.860 266.541,279.200 266.200 C 278.540 265.859,278.000 265.669,278.000 265.779 M324.400 266.579 C 324.400 266.689,324.940 267.059,325.600 267.400 C 326.260 267.741,326.800 267.931,326.800 267.821 C 326.800 267.711,326.260 267.341,325.600 267.000 C 324.940 266.659,324.400 266.469,324.400 266.579 M282.400 268.179 C 282.400 268.289,282.940 268.659,283.600 269.000 C 284.260 269.341,284.800 269.531,284.800 269.421 C 284.800 269.311,284.260 268.941,283.600 268.600 C 282.940 268.259,282.400 268.069,282.400 268.179 M329.000 269.113 C 329.220 269.339,330.030 269.870,330.800 270.293 C 331.570 270.716,333.415 271.738,334.900 272.565 C 336.385 273.392,337.600 273.979,337.600 273.869 C 337.600 273.684,335.659 272.554,330.600 269.793 C 329.500 269.192,328.780 268.886,329.000 269.113 M67.900 270.677 C 66.856 271.258,66.063 271.797,66.140 271.873 C 66.300 272.034,70.000 270.014,70.000 269.766 C 70.000 269.515,69.943 269.540,67.900 270.677 M285.200 269.779 C 285.200 269.889,285.740 270.259,286.400 270.600 C 287.060 270.941,287.600 271.131,287.600 271.021 C 287.600 270.911,287.060 270.541,286.400 270.200 C 285.740 269.859,285.200 269.669,285.200 269.779 M290.400 272.767 C 291.363 273.552,292.000 273.808,292.000 273.410 C 292.000 273.306,291.415 272.935,290.700 272.586 L 289.400 271.952 290.400 272.767 M62.000 274.036 C 61.336 274.579,61.269 274.715,61.800 274.440 C 63.105 273.766,63.828 273.212,63.400 273.215 C 63.180 273.217,62.550 273.586,62.000 274.036 M292.400 273.741 C 292.400 274.008,296.090 276.043,296.263 275.871 C 296.340 275.793,295.503 275.239,294.402 274.640 C 293.301 274.040,292.400 273.636,292.400 273.741 M338.400 274.420 C 339.787 275.361,340.578 275.635,339.600 274.836 C 339.050 274.386,338.420 274.017,338.200 274.015 C 337.980 274.013,338.070 274.196,338.400 274.420 M104.600 275.200 C 103.940 275.637,103.580 275.992,103.800 275.988 C 104.201 275.982,106.376 274.423,106.000 274.412 C 105.890 274.408,105.260 274.763,104.600 275.200 M98.300 278.677 C 97.256 279.258,96.463 279.797,96.540 279.873 C 96.700 280.034,100.400 278.014,100.400 277.766 C 100.400 277.515,100.343 277.540,98.300 278.677 M299.800 277.884 C 300.020 278.109,301.460 278.975,303.000 279.809 C 304.540 280.643,305.620 281.141,305.400 280.916 C 305.180 280.691,303.740 279.825,302.200 278.991 C 300.660 278.157,299.580 277.659,299.800 277.884 M345.600 278.420 C 346.987 279.361,347.778 279.635,346.800 278.836 C 346.250 278.386,345.620 278.017,345.400 278.015 C 345.180 278.013,345.270 278.196,345.600 278.420 M50.700 280.229 C 49.205 281.040,49.296 281.378,50.800 280.600 C 51.460 280.259,52.000 279.894,52.000 279.790 C 52.000 279.532,51.957 279.547,50.700 280.229 M349.600 280.579 C 349.600 280.689,350.140 281.059,350.800 281.400 C 351.460 281.741,352.000 281.931,352.000 281.821 C 352.000 281.711,351.460 281.341,350.800 281.000 C 350.140 280.659,349.600 280.469,349.600 280.579 M46.200 282.800 C 45.540 283.237,45.180 283.592,45.400 283.588 C 45.801 283.582,47.976 282.023,47.600 282.012 C 47.490 282.008,46.860 282.363,46.200 282.800 M307.600 282.179 C 307.600 282.289,308.140 282.659,308.800 283.000 C 309.460 283.341,310.000 283.531,310.000 283.421 C 310.000 283.311,309.460 282.941,308.800 282.600 C 308.140 282.259,307.600 282.069,307.600 282.179 M42.700 284.677 C 41.656 285.258,40.863 285.797,40.940 285.873 C 41.100 286.034,44.800 284.014,44.800 283.766 C 44.800 283.515,44.743 283.540,42.700 284.677 M88.300 284.229 C 86.805 285.040,86.896 285.378,88.400 284.600 C 89.060 284.259,89.600 283.894,89.600 283.790 C 89.600 283.532,89.557 283.547,88.300 284.229 M310.400 283.779 C 310.400 283.889,310.940 284.259,311.600 284.600 C 312.260 284.941,312.800 285.131,312.800 285.021 C 312.800 284.911,312.260 284.541,311.600 284.200 C 310.940 283.859,310.400 283.669,310.400 283.779 M356.800 284.541 C 356.800 284.808,360.490 286.843,360.663 286.671 C 360.740 286.593,359.903 286.039,358.802 285.440 C 357.701 284.840,356.800 284.436,356.800 284.541 M83.900 286.629 C 83.295 286.957,82.800 287.310,82.800 287.413 C 82.800 287.799,83.432 287.557,84.400 286.800 C 85.589 285.870,85.411 285.809,83.900 286.629 M315.600 286.767 C 316.563 287.552,317.200 287.808,317.200 287.410 C 317.200 287.306,316.615 286.935,315.900 286.586 L 314.600 285.952 315.600 286.767 M36.800 288.036 C 36.136 288.579,36.069 288.715,36.600 288.440 C 37.905 287.766,38.628 287.212,38.200 287.215 C 37.980 287.217,37.350 287.586,36.800 288.036 M317.600 287.779 C 317.600 287.889,318.140 288.259,318.800 288.600 C 319.460 288.941,320.000 289.131,320.000 289.021 C 320.000 288.911,319.460 288.541,318.800 288.200 C 318.140 287.859,317.600 287.669,317.600 287.779 M363.600 288.420 C 364.987 289.361,365.778 289.635,364.800 288.836 C 364.250 288.386,363.620 288.017,363.400 288.015 C 363.180 288.013,363.270 288.196,363.600 288.420 M32.700 290.229 C 31.205 291.040,31.296 291.378,32.800 290.600 C 33.460 290.259,34.000 289.894,34.000 289.790 C 34.000 289.532,33.957 289.547,32.700 290.229 M366.400 290.022 C 366.730 290.247,367.720 290.804,368.600 291.259 C 370.569 292.279,369.976 291.594,367.888 290.438 C 366.328 289.574,365.337 289.297,366.400 290.022 M76.600 290.800 C 75.940 291.237,75.580 291.592,75.800 291.588 C 76.201 291.582,78.376 290.023,78.000 290.012 C 77.890 290.008,77.260 290.363,76.600 290.800 M322.800 290.764 C 323.350 291.214,323.980 291.583,324.200 291.585 C 324.628 291.588,323.905 291.034,322.600 290.360 C 322.069 290.085,322.136 290.221,322.800 290.764 M29.600 292.036 C 28.936 292.579,28.869 292.715,29.400 292.440 C 30.705 291.766,31.428 291.212,31.000 291.215 C 30.780 291.217,30.150 291.586,29.600 292.036 M370.800 292.420 C 372.187 293.361,372.978 293.635,372.000 292.836 C 371.450 292.386,370.820 292.017,370.600 292.015 C 370.380 292.013,370.470 292.196,370.800 292.420 M72.200 293.200 C 71.540 293.637,71.180 293.992,71.400 293.988 C 71.801 293.982,73.976 292.423,73.600 292.412 C 73.490 292.408,72.860 292.763,72.200 293.200 M327.102 293.060 C 328.109 293.887,335.629 297.928,335.000 297.305 C 334.780 297.087,333.340 296.234,331.800 295.408 C 330.260 294.583,328.370 293.551,327.600 293.114 C 326.378 292.422,326.315 292.415,327.102 293.060 M25.500 294.229 C 24.005 295.040,24.096 295.378,25.600 294.600 C 26.260 294.259,26.800 293.894,26.800 293.790 C 26.800 293.532,26.757 293.547,25.500 294.229 M374.800 294.590 C 374.800 294.694,375.385 295.065,376.100 295.414 L 377.400 296.048 376.400 295.233 C 375.437 294.448,374.800 294.192,374.800 294.590 M67.200 296.036 C 66.536 296.579,66.469 296.715,67.000 296.440 C 68.305 295.766,69.028 295.212,68.600 295.215 C 68.380 295.217,67.750 295.586,67.200 296.036 M18.300 298.229 C 16.805 299.040,16.896 299.378,18.400 298.600 C 19.060 298.259,19.600 297.894,19.600 297.790 C 19.600 297.532,19.557 297.547,18.300 298.229 M63.100 298.229 C 61.605 299.040,61.696 299.378,63.200 298.600 C 63.860 298.259,64.400 297.894,64.400 297.790 C 64.400 297.532,64.357 297.547,63.100 298.229 M335.600 297.779 C 335.600 297.889,336.140 298.259,336.800 298.600 C 337.460 298.941,338.000 299.131,338.000 299.021 C 338.000 298.911,337.460 298.541,336.800 298.200 C 336.140 297.859,335.600 297.669,335.600 297.779 M382.000 298.579 C 382.000 298.689,382.540 299.059,383.200 299.400 C 383.860 299.741,384.400 299.931,384.400 299.821 C 384.400 299.711,383.860 299.341,383.200 299.000 C 382.540 298.659,382.000 298.469,382.000 298.579 M60.000 300.036 C 59.336 300.579,59.269 300.715,59.800 300.440 C 61.105 299.766,61.828 299.212,61.400 299.215 C 61.180 299.217,60.550 299.586,60.000 300.036 M338.400 299.366 C 338.400 299.635,342.107 301.627,342.282 301.452 C 342.370 301.364,341.600 300.821,340.570 300.246 C 338.663 299.180,338.400 299.073,338.400 299.366 M13.900 300.629 C 12.405 301.440,12.496 301.778,14.000 301.000 C 14.660 300.659,15.200 300.294,15.200 300.190 C 15.200 299.932,15.157 299.947,13.900 300.629 M386.400 300.979 C 386.400 301.089,386.940 301.459,387.600 301.800 C 388.260 302.141,388.800 302.331,388.800 302.221 C 388.800 302.111,388.260 301.741,387.600 301.400 C 386.940 301.059,386.400 300.869,386.400 300.979 M389.200 302.541 C 389.200 302.808,392.890 304.843,393.063 304.671 C 393.140 304.593,392.303 304.039,391.202 303.440 C 390.101 302.840,389.200 302.436,389.200 302.541 M51.500 304.629 C 50.005 305.440,50.096 305.778,51.600 305.000 C 52.260 304.659,52.800 304.294,52.800 304.190 C 52.800 303.932,52.757 303.947,51.500 304.629 M348.000 304.767 C 348.963 305.552,349.600 305.808,349.600 305.410 C 349.600 305.306,349.015 304.935,348.300 304.586 L 347.000 303.952 348.000 304.767 M4.400 306.036 C 3.736 306.579,3.669 306.715,4.200 306.440 C 5.505 305.766,6.228 305.212,5.800 305.215 C 5.580 305.217,4.950 305.586,4.400 306.036 M396.000 306.422 C 397.033 307.126,399.600 308.425,399.600 308.242 C 399.600 308.033,396.005 305.997,395.650 306.006 C 395.512 306.009,395.670 306.196,396.000 306.422 M355.200 308.764 C 355.750 309.214,356.380 309.583,356.600 309.585 C 357.028 309.588,356.305 309.034,355.000 308.360 C 354.469 308.085,354.536 308.221,355.200 308.764 M40.700 310.677 C 39.656 311.258,38.863 311.797,38.940 311.873 C 39.100 312.034,42.800 310.014,42.800 309.766 C 42.800 309.515,42.743 309.540,40.700 310.677 M357.200 309.741 C 357.200 310.008,360.890 312.043,361.063 311.871 C 361.140 311.793,360.303 311.239,359.202 310.640 C 358.101 310.040,357.200 309.636,357.200 309.741 M34.800 314.036 C 34.136 314.579,34.069 314.715,34.600 314.440 C 35.905 313.766,36.628 313.212,36.200 313.215 C 35.980 313.217,35.350 313.586,34.800 314.036 M363.600 313.390 C 363.600 313.494,364.185 313.865,364.900 314.214 L 366.200 314.848 365.200 314.033 C 364.237 313.248,363.600 312.992,363.600 313.390 M366.800 315.222 C 367.833 315.926,370.400 317.225,370.400 317.042 C 370.400 316.833,366.805 314.797,366.450 314.806 C 366.312 314.809,366.470 314.996,366.800 315.222 M30.700 316.229 C 29.205 317.040,29.296 317.378,30.800 316.600 C 31.460 316.259,32.000 315.894,32.000 315.790 C 32.000 315.532,31.957 315.547,30.700 316.229 M23.500 320.229 C 22.005 321.040,22.096 321.378,23.600 320.600 C 24.260 320.259,24.800 319.894,24.800 319.790 C 24.800 319.532,24.757 319.547,23.500 320.229 M375.200 319.779 C 375.200 319.889,375.740 320.259,376.400 320.600 C 377.060 320.941,377.600 321.131,377.600 321.021 C 377.600 320.911,377.060 320.541,376.400 320.200 C 375.740 319.859,375.200 319.669,375.200 319.779 M380.400 322.767 C 381.363 323.552,382.000 323.808,382.000 323.410 C 382.000 323.306,381.415 322.935,380.700 322.586 L 379.400 321.952 380.400 322.767 M382.600 323.906 C 383.168 324.501,386.063 326.070,386.249 325.884 C 386.334 325.799,385.458 325.225,384.302 324.609 C 383.146 323.992,382.380 323.676,382.600 323.906 M14.600 325.200 C 13.940 325.637,13.580 325.992,13.800 325.988 C 14.201 325.982,16.376 324.423,16.000 324.412 C 15.890 324.408,15.260 324.763,14.600 325.200 M387.600 326.764 C 388.150 327.214,388.780 327.583,389.000 327.585 C 389.428 327.588,388.705 327.034,387.400 326.360 C 386.869 326.085,386.936 326.221,387.600 326.764 M7.519 329.123 C 6.044 329.951,4.694 330.788,4.519 330.982 C 4.147 331.394,9.615 328.462,10.180 327.946 C 10.871 327.316,10.230 327.599,7.519 329.123 M392.000 329.222 C 393.033 329.926,395.600 331.225,395.600 331.042 C 395.600 330.833,392.005 328.797,391.650 328.806 C 391.512 328.809,391.670 328.996,392.000 329.222 M2.400 332.036 C 1.736 332.579,1.669 332.715,2.200 332.440 C 3.505 331.766,4.228 331.212,3.800 331.215 C 3.580 331.217,2.950 331.586,2.400 332.036 M396.400 331.620 C 397.787 332.561,398.578 332.835,397.600 332.036 C 397.050 331.586,396.420 331.217,396.200 331.215 C 395.980 331.213,396.070 331.396,396.400 331.620 " stroke="none" fill="#c47696" fill-rule="evenodd"></path><path id="path7" d="M187.500 67.100 C 194.375 67.161,205.625 67.161,212.500 67.100 C 219.375 67.038,213.750 66.988,200.000 66.988 C 186.250 66.988,180.625 67.038,187.500 67.100 M86.800 115.379 C 86.800 115.489,87.340 115.859,88.000 116.200 C 88.660 116.541,89.200 116.731,89.200 116.621 C 89.200 116.511,88.660 116.141,88.000 115.800 C 87.340 115.459,86.800 115.269,86.800 115.379 M122.800 135.379 C 122.800 135.489,123.340 135.859,124.000 136.200 C 124.660 136.541,125.200 136.731,125.200 136.621 C 125.200 136.511,124.660 136.141,124.000 135.800 C 123.340 135.459,122.800 135.269,122.800 135.379 M132.800 152.800 L 111.800 153.011 133.100 153.105 C 147.096 153.168,154.400 153.063,154.400 152.800 C 154.400 152.580,154.265 152.443,154.100 152.495 C 153.935 152.547,144.350 152.684,132.800 152.800 M245.738 152.900 C 245.636 153.065,255.148 153.159,266.876 153.109 C 278.604 153.060,284.870 152.970,280.800 152.910 C 261.800 152.632,245.906 152.628,245.738 152.900 M112.060 246.993 C 112.326 247.259,154.053 247.280,154.319 247.014 C 154.437 246.896,144.933 246.800,133.200 246.800 C 121.467 246.800,111.954 246.887,112.060 246.993 M245.681 247.014 C 245.947 247.280,287.674 247.259,287.940 246.993 C 288.046 246.887,278.533 246.800,266.800 246.800 C 255.067 246.800,245.563 246.896,245.681 247.014 M108.700 248.629 C 107.205 249.440,107.296 249.778,108.800 249.000 C 109.460 248.659,110.000 248.294,110.000 248.190 C 110.000 247.932,109.957 247.947,108.700 248.629 M250.400 249.779 C 250.400 249.889,250.940 250.259,251.600 250.600 C 252.260 250.941,252.800 251.131,252.800 251.021 C 252.800 250.911,252.260 250.541,251.600 250.200 C 250.940 249.859,250.400 249.669,250.400 249.779 M73.100 268.427 C 72.275 268.863,71.600 269.308,71.600 269.418 C 71.600 269.527,72.320 269.249,73.200 268.800 C 74.080 268.351,74.800 267.897,74.800 267.792 C 74.800 267.530,74.797 267.531,73.100 268.427 M94.300 280.229 C 92.805 281.040,92.896 281.378,94.400 280.600 C 95.060 280.259,95.600 279.894,95.600 279.790 C 95.600 279.532,95.557 279.547,94.300 280.229 M355.600 284.579 C 355.600 284.689,356.140 285.059,356.800 285.400 C 357.460 285.741,358.000 285.931,358.000 285.821 C 358.000 285.711,357.460 285.341,356.800 285.000 C 356.140 284.659,355.600 284.469,355.600 284.579 M58.700 300.027 C 57.875 300.463,57.200 300.908,57.200 301.018 C 57.200 301.127,57.920 300.849,58.800 300.400 C 59.680 299.951,60.400 299.497,60.400 299.392 C 60.400 299.130,60.397 299.131,58.700 300.027 M394.400 329.779 C 394.400 329.889,394.940 330.259,395.600 330.600 C 396.260 330.941,396.800 331.131,396.800 331.021 C 396.800 330.911,396.260 330.541,395.600 330.200 C 394.940 329.859,394.400 329.669,394.400 329.779 M187.500 333.100 C 194.375 333.161,205.625 333.161,212.500 333.100 C 219.375 333.038,213.750 332.988,200.000 332.988 C 186.250 332.988,180.625 333.038,187.500 333.100 " stroke="none" fill="#d82d4d" fill-rule="evenodd"></path><path id="path8" d="M175.200 66.400 C 175.200 66.662,183.733 66.800,200.000 66.800 C 216.267 66.800,224.800 66.662,224.800 66.400 C 224.800 66.138,216.267 66.000,200.000 66.000 C 183.733 66.000,175.200 66.138,175.200 66.400 M122.900 153.500 C 128.565 153.562,137.835 153.562,143.500 153.500 C 149.165 153.437,144.530 153.386,133.200 153.386 C 121.870 153.386,117.235 153.437,122.900 153.500 M123.100 246.700 C 128.875 246.762,138.325 246.762,144.100 246.700 C 149.875 246.637,145.150 246.586,133.600 246.586 C 122.050 246.586,117.325 246.637,123.100 246.700 M245.200 246.776 C 245.200 246.983,245.408 247.281,245.662 247.438 C 245.947 247.614,246.015 247.548,245.840 247.265 C 245.629 246.924,250.933 246.780,266.679 246.700 L 287.800 246.593 266.500 246.496 C 253.389 246.437,245.200 246.545,245.200 246.776 M175.200 333.600 C 175.200 333.862,183.733 334.000,200.000 334.000 C 216.267 334.000,224.800 333.862,224.800 333.600 C 224.800 333.338,216.267 333.200,200.000 333.200 C 183.733 333.200,175.200 333.338,175.200 333.600 " stroke="none" fill="#da3a5c" fill-rule="evenodd"></path></g></svg>