<svg id="svg" version="1.1" xmlns="http://www.w3.org/2000/svg" xmlns:xlink="http://www.w3.org/1999/xlink" width="400" height="400" viewBox="0, 0, 400,400"><g id="svgg"><path id="path0" d="M175.600 13.200 C 175.600 13.429,174.400 13.600,172.800 13.600 C 171.200 13.600,170.000 13.771,170.000 14.000 C 170.000 14.220,169.100 14.400,168.000 14.400 C 166.900 14.400,166.000 14.580,166.000 14.800 C 166.000 15.020,165.291 15.200,164.424 15.200 C 163.557 15.200,162.736 15.380,162.600 15.600 C 162.464 15.820,161.834 16.000,161.200 16.000 C 160.566 16.000,159.936 16.180,159.800 16.400 C 159.664 16.620,159.113 16.800,158.576 16.800 C 158.039 16.800,157.600 16.980,157.600 17.200 C 157.600 17.420,157.060 17.600,156.400 17.600 C 155.740 17.600,155.200 17.780,155.200 18.000 C 155.200 18.220,154.660 18.400,154.000 18.400 C 153.340 18.400,152.800 18.580,152.800 18.800 C 152.800 19.020,152.440 19.200,152.000 19.200 C 151.560 19.200,151.200 19.380,151.200 19.600 C 151.200 19.820,150.660 20.000,150.000 20.000 C 149.340 20.000,148.800 20.180,148.800 20.400 C 148.800 20.620,148.440 20.800,148.000 20.800 C 147.560 20.800,147.200 20.980,147.200 21.200 C 147.200 21.420,146.840 21.600,146.400 21.600 C 145.960 21.600,145.600 21.780,145.600 22.000 C 145.600 22.220,145.240 22.400,144.800 22.400 C 144.360 22.400,144.000 22.546,144.000 22.725 C 144.000 22.904,143.370 23.298,142.600 23.600 C 141.830 23.902,141.200 24.263,141.200 24.401 C 141.200 24.540,140.120 25.169,138.800 25.800 C 137.480 26.431,136.400 27.082,136.400 27.247 C 136.400 27.411,136.034 27.662,135.587 27.804 C 135.140 27.946,134.338 28.498,133.805 29.031 C 133.272 29.564,132.630 30.000,132.379 30.000 C 132.127 30.000,131.417 30.540,130.800 31.200 C 130.183 31.860,129.510 32.400,129.303 32.400 C 129.095 32.400,128.043 33.317,126.963 34.438 C 125.883 35.560,123.155 38.311,120.900 40.554 C 118.645 42.796,116.800 44.764,116.800 44.928 C 116.800 45.092,116.170 45.857,115.400 46.627 C 114.630 47.397,114.000 48.173,114.000 48.351 C 114.000 48.530,113.550 49.199,113.000 49.838 C 112.451 50.477,112.001 51.143,112.000 51.317 C 112.000 51.491,111.640 52.020,111.200 52.492 C 110.760 52.964,110.400 53.587,110.400 53.875 C 110.400 54.164,110.253 54.400,110.074 54.400 C 109.676 54.400,108.400 57.001,108.400 57.814 C 108.400 58.136,108.220 58.400,108.000 58.400 C 107.780 58.400,107.600 58.670,107.600 59.000 C 107.600 59.330,107.420 59.600,107.200 59.600 C 106.980 59.600,106.800 59.960,106.800 60.400 C 106.800 60.840,106.620 61.200,106.400 61.200 C 106.180 61.200,106.000 61.560,106.000 62.000 C 106.000 62.440,105.820 62.800,105.600 62.800 C 105.380 62.800,105.200 63.160,105.200 63.600 C 105.200 64.040,105.020 64.400,104.800 64.400 C 104.580 64.400,104.400 64.760,104.400 65.200 C 104.400 65.640,104.220 66.000,104.000 66.000 C 103.780 66.000,103.600 66.540,103.600 67.200 C 103.600 67.860,103.420 68.400,103.200 68.400 C 102.980 68.400,102.800 68.760,102.800 69.200 C 102.800 69.640,102.620 70.000,102.400 70.000 C 102.180 70.000,102.000 70.540,102.000 71.200 C 102.000 71.860,101.820 72.400,101.600 72.400 C 101.380 72.400,101.200 72.940,101.200 73.600 C 101.200 74.260,101.020 74.800,100.800 74.800 C 100.580 74.800,100.400 75.430,100.400 76.200 C 100.400 76.970,100.220 77.600,100.000 77.600 C 99.780 77.600,99.600 78.320,99.600 79.200 C 99.600 80.080,99.438 80.800,99.240 80.800 C 98.868 80.800,98.522 82.796,98.148 87.100 C 98.029 88.475,97.767 89.600,97.566 89.600 C 97.353 89.600,97.200 94.455,97.200 101.200 C 97.200 108.667,97.343 112.800,97.600 112.800 C 97.822 112.800,98.000 113.867,98.000 115.200 C 98.000 116.533,98.178 117.600,98.400 117.600 C 98.620 117.600,98.800 118.399,98.800 119.376 C 98.800 120.353,98.980 121.264,99.200 121.400 C 99.420 121.536,99.600 122.267,99.600 123.024 C 99.600 123.781,99.780 124.400,100.000 124.400 C 100.220 124.400,100.400 125.120,100.400 126.000 C 100.400 126.880,100.580 127.600,100.800 127.600 C 101.020 127.600,101.200 128.140,101.200 128.800 C 101.200 129.460,101.380 130.000,101.600 130.000 C 101.820 130.000,102.000 130.439,102.000 130.976 C 102.000 131.513,102.180 132.064,102.400 132.200 C 102.620 132.336,102.800 132.797,102.800 133.224 C 102.800 133.651,102.980 134.000,103.200 134.000 C 103.420 134.000,103.600 134.439,103.600 134.976 C 103.600 135.513,103.780 136.064,104.000 136.200 C 104.220 136.336,104.400 136.797,104.400 137.224 C 104.400 137.651,104.580 138.000,104.800 138.000 C 105.020 138.000,105.200 138.360,105.200 138.800 C 105.200 139.240,105.346 139.600,105.525 139.600 C 105.704 139.600,106.098 140.230,106.400 141.000 C 106.702 141.770,107.096 142.400,107.275 142.400 C 107.454 142.400,107.600 142.760,107.600 143.200 C 107.600 143.640,107.780 144.000,108.000 144.000 C 108.220 144.000,108.400 144.349,108.400 144.776 C 108.400 145.203,108.569 145.657,108.775 145.784 C 108.981 145.912,109.398 146.507,109.701 147.108 C 110.617 148.921,111.363 150.117,112.100 150.955 C 112.485 151.393,112.800 151.947,112.800 152.187 C 112.800 152.427,113.160 152.883,113.600 153.200 C 114.040 153.517,114.400 153.963,114.400 154.190 C 114.400 154.418,115.120 155.369,116.000 156.303 C 116.880 157.237,117.600 158.093,117.600 158.205 C 117.600 158.470,127.530 168.400,127.796 168.400 C 127.908 168.400,128.741 169.120,129.648 170.000 C 130.555 170.880,131.461 171.600,131.663 171.600 C 131.864 171.600,132.427 171.966,132.914 172.414 C 134.183 173.580,136.749 175.200,137.329 175.200 C 137.601 175.200,138.083 175.560,138.400 176.000 C 138.717 176.440,139.297 176.800,139.688 176.800 C 140.080 176.800,140.400 176.980,140.400 177.200 C 140.400 177.420,140.760 177.600,141.200 177.600 C 141.640 177.600,142.000 177.780,142.000 178.000 C 142.000 178.220,142.270 178.400,142.600 178.400 C 142.930 178.400,143.200 178.580,143.200 178.800 C 143.200 179.020,143.560 179.200,144.000 179.200 C 144.440 179.200,144.801 179.335,144.803 179.500 C 144.807 179.859,146.744 180.800,147.480 180.800 C 147.766 180.800,148.000 180.980,148.000 181.200 C 148.000 181.420,148.360 181.600,148.800 181.600 C 149.240 181.600,149.600 181.780,149.600 182.000 C 149.600 182.220,149.960 182.400,150.400 182.400 C 150.840 182.400,151.200 182.580,151.200 182.800 C 151.200 183.020,151.740 183.200,152.400 183.200 C 153.060 183.200,153.600 183.347,153.600 183.528 C 153.600 183.708,154.511 184.104,155.625 184.407 C 156.739 184.710,157.740 185.103,157.849 185.279 C 157.958 185.456,158.566 185.600,159.200 185.600 C 159.834 185.600,160.464 185.780,160.600 186.000 C 160.736 186.220,161.366 186.400,162.000 186.400 C 162.634 186.400,163.264 186.580,163.400 186.800 C 163.536 187.020,164.357 187.200,165.224 187.200 C 166.091 187.200,166.800 187.380,166.800 187.600 C 166.800 187.820,167.689 188.000,168.776 188.000 C 169.863 188.000,170.864 188.180,171.000 188.400 C 171.136 188.620,172.756 188.800,174.600 188.800 C 176.444 188.800,178.064 188.980,178.200 189.200 C 178.532 189.737,191.868 189.737,192.200 189.200 C 192.336 188.980,193.956 188.800,195.800 188.800 C 197.644 188.800,199.264 188.620,199.400 188.400 C 199.536 188.180,200.537 188.000,201.624 188.000 C 202.711 188.000,203.600 187.820,203.600 187.600 C 203.600 187.380,204.309 187.200,205.176 187.200 C 206.043 187.200,206.864 187.020,207.000 186.800 C 207.136 186.580,207.777 186.400,208.424 186.400 C 209.071 186.400,209.600 186.220,209.600 186.000 C 209.600 185.780,210.219 185.600,210.976 185.600 C 211.733 185.600,212.464 185.420,212.600 185.200 C 212.736 184.980,213.276 184.800,213.800 184.800 C 214.324 184.800,214.864 184.620,215.000 184.400 C 215.136 184.180,215.597 184.000,216.024 184.000 C 216.451 184.000,216.800 183.820,216.800 183.600 C 216.800 183.380,217.340 183.200,218.000 183.200 C 218.660 183.200,219.200 183.020,219.200 182.800 C 219.200 182.580,219.560 182.400,220.000 182.400 C 220.440 182.400,220.800 182.220,220.800 182.000 C 220.800 181.780,221.160 181.600,221.600 181.600 C 222.040 181.600,222.400 181.420,222.400 181.200 C 222.400 180.980,222.850 180.800,223.400 180.800 C 223.950 180.800,224.400 180.620,224.400 180.400 C 224.400 180.180,224.760 180.000,225.200 180.000 C 225.640 180.000,226.000 179.820,226.000 179.600 C 226.000 179.380,226.236 179.200,226.525 179.200 C 226.813 179.200,227.436 178.840,227.908 178.400 C 228.380 177.960,229.044 177.600,229.383 177.600 C 229.722 177.600,230.000 177.420,230.000 177.200 C 230.000 176.980,230.320 176.800,230.712 176.800 C 231.103 176.800,231.683 176.440,232.000 176.000 C 232.317 175.560,232.799 175.200,233.071 175.200 C 233.526 175.200,235.182 174.204,237.569 172.494 C 242.353 169.067,255.154 156.372,255.961 154.256 C 256.050 154.023,256.545 153.378,257.061 152.821 C 257.578 152.264,258.000 151.531,258.000 151.192 C 258.000 150.854,258.360 150.317,258.800 150.000 C 259.240 149.683,259.600 149.186,259.600 148.895 C 259.600 148.604,259.960 147.980,260.400 147.508 C 260.840 147.036,261.200 146.413,261.200 146.125 C 261.200 145.836,261.380 145.600,261.600 145.600 C 261.820 145.600,262.000 145.240,262.000 144.800 C 262.000 144.360,262.180 144.000,262.400 144.000 C 262.620 144.000,262.800 143.640,262.800 143.200 C 262.800 142.760,262.946 142.400,263.125 142.400 C 263.304 142.400,263.698 141.770,264.000 141.000 C 264.302 140.230,264.696 139.600,264.875 139.600 C 265.054 139.600,265.200 139.240,265.200 138.800 C 265.200 138.360,265.380 138.000,265.600 138.000 C 265.820 138.000,266.000 137.640,266.000 137.200 C 266.000 136.760,266.180 136.400,266.400 136.400 C 266.620 136.400,266.800 135.860,266.800 135.200 C 266.800 134.540,266.980 134.000,267.200 134.000 C 267.420 134.000,267.600 133.640,267.600 133.200 C 267.600 132.760,267.780 132.400,268.000 132.400 C 268.220 132.400,268.400 131.860,268.400 131.200 C 268.400 130.540,268.580 130.000,268.800 130.000 C 269.020 130.000,269.200 129.460,269.200 128.800 C 269.200 128.140,269.380 127.600,269.600 127.600 C 269.820 127.600,270.000 126.981,270.000 126.224 C 270.000 125.467,270.180 124.736,270.400 124.600 C 270.620 124.464,270.800 123.834,270.800 123.200 C 270.800 122.566,270.980 121.936,271.200 121.800 C 271.420 121.664,271.600 120.854,271.600 120.000 C 271.600 119.146,271.780 118.336,272.000 118.200 C 272.220 118.064,272.400 117.052,272.400 115.950 C 272.400 114.849,272.595 113.583,272.833 113.138 C 273.432 112.019,273.432 89.672,272.833 89.073 C 272.595 88.835,272.400 87.697,272.400 86.544 C 272.400 85.391,272.220 84.336,272.000 84.200 C 271.780 84.064,271.600 83.164,271.600 82.200 C 271.600 81.236,271.420 80.336,271.200 80.200 C 270.980 80.064,270.800 79.333,270.800 78.576 C 270.800 77.819,270.620 77.200,270.400 77.200 C 270.180 77.200,270.000 76.660,270.000 76.000 C 270.000 75.340,269.820 74.800,269.600 74.800 C 269.380 74.800,269.200 74.260,269.200 73.600 C 269.200 72.940,269.020 72.400,268.800 72.400 C 268.580 72.400,268.400 71.860,268.400 71.200 C 268.400 70.540,268.220 70.000,268.000 70.000 C 267.780 70.000,267.600 69.561,267.600 69.024 C 267.600 68.487,267.420 67.936,267.200 67.800 C 266.980 67.664,266.800 67.203,266.800 66.776 C 266.800 66.349,266.620 66.000,266.400 66.000 C 266.180 66.000,266.000 65.640,266.000 65.200 C 266.000 64.760,265.820 64.400,265.600 64.400 C 265.380 64.400,265.200 64.166,265.200 63.880 C 265.200 63.144,264.259 61.207,263.900 61.203 C 263.735 61.201,263.600 60.840,263.600 60.400 C 263.600 59.960,263.420 59.600,263.200 59.600 C 262.980 59.600,262.800 59.330,262.800 59.000 C 262.800 58.670,262.620 58.400,262.400 58.400 C 262.180 58.400,262.000 58.040,262.000 57.600 C 262.000 57.160,261.820 56.800,261.600 56.800 C 261.380 56.800,261.200 56.480,261.200 56.088 C 261.200 55.697,260.840 55.117,260.400 54.800 C 259.960 54.483,259.600 53.903,259.600 53.512 C 259.600 53.120,259.447 52.800,259.261 52.800 C 259.074 52.800,258.597 52.080,258.200 51.200 C 257.803 50.320,257.355 49.600,257.203 49.600 C 257.052 49.600,256.730 49.164,256.487 48.632 C 255.795 47.112,241.699 32.400,240.936 32.400 C 240.803 32.400,240.403 32.076,240.047 31.681 C 239.691 31.286,238.770 30.525,238.000 29.992 C 237.230 29.458,236.251 28.702,235.825 28.311 C 235.398 27.920,234.813 27.600,234.525 27.600 C 234.236 27.600,234.000 27.453,234.000 27.274 C 234.000 27.094,232.920 26.431,231.600 25.800 C 230.280 25.169,229.200 24.506,229.200 24.326 C 229.200 24.147,228.840 24.000,228.400 24.000 C 227.960 24.000,227.600 23.820,227.600 23.600 C 227.600 23.380,227.240 23.200,226.800 23.200 C 226.360 23.200,226.000 23.020,226.000 22.800 C 226.000 22.580,225.640 22.400,225.200 22.400 C 224.760 22.400,224.400 22.220,224.400 22.000 C 224.400 21.780,224.130 21.600,223.800 21.600 C 223.470 21.600,223.200 21.420,223.200 21.200 C 223.200 20.980,222.851 20.800,222.424 20.800 C 221.997 20.800,221.536 20.620,221.400 20.400 C 221.264 20.180,220.803 20.000,220.376 20.000 C 219.949 20.000,219.600 19.820,219.600 19.600 C 219.600 19.380,219.150 19.200,218.600 19.200 C 218.050 19.200,217.600 19.020,217.600 18.800 C 217.600 18.580,217.060 18.400,216.400 18.400 C 215.740 18.400,215.200 18.220,215.200 18.000 C 215.200 17.780,214.660 17.600,214.000 17.600 C 213.340 17.600,212.800 17.420,212.800 17.200 C 212.800 16.980,212.260 16.800,211.600 16.800 C 210.940 16.800,210.400 16.620,210.400 16.400 C 210.400 16.180,209.871 16.000,209.224 16.000 C 208.577 16.000,207.936 15.820,207.800 15.600 C 207.664 15.380,206.843 15.200,205.976 15.200 C 205.109 15.200,204.400 15.020,204.400 14.800 C 204.400 14.580,203.500 14.400,202.400 14.400 C 201.300 14.400,200.400 14.220,200.400 14.000 C 200.400 13.771,199.200 13.600,197.600 13.600 C 196.000 13.600,194.800 13.429,194.800 13.200 C 194.800 12.944,191.333 12.800,185.200 12.800 C 179.067 12.800,175.600 12.944,175.600 13.200 M258.200 186.000 C 258.064 186.220,256.793 186.400,255.376 186.400 C 253.925 186.400,252.800 186.575,252.800 186.800 C 252.800 187.020,252.080 187.200,251.200 187.200 C 250.320 187.200,249.600 187.380,249.600 187.600 C 249.600 187.820,249.060 188.000,248.400 188.000 C 247.740 188.000,247.200 188.180,247.200 188.400 C 247.200 188.620,246.660 188.800,246.000 188.800 C 245.340 188.800,244.800 188.980,244.800 189.200 C 244.800 189.420,244.440 189.600,244.000 189.600 C 243.560 189.600,243.200 189.780,243.200 190.000 C 243.200 190.220,242.930 190.400,242.600 190.400 C 242.270 190.400,242.000 190.580,242.000 190.800 C 242.000 191.020,241.790 191.200,241.534 191.200 C 240.788 191.200,238.000 192.523,238.000 192.877 C 238.000 193.055,237.775 193.200,237.500 193.200 C 237.225 193.201,236.477 193.651,235.838 194.200 C 235.199 194.750,234.522 195.200,234.335 195.200 C 233.860 195.200,226.800 202.360,226.800 202.842 C 226.800 203.211,226.477 203.673,225.300 204.985 C 225.025 205.292,224.800 205.826,224.800 206.171 C 224.800 206.517,224.620 206.800,224.400 206.800 C 224.180 206.800,224.000 207.120,224.000 207.512 C 224.000 207.903,223.640 208.483,223.200 208.800 C 222.760 209.117,222.400 209.697,222.400 210.088 C 222.400 210.480,222.220 210.800,222.000 210.800 C 221.780 210.800,221.600 211.149,221.600 211.576 C 221.600 212.003,221.420 212.464,221.200 212.600 C 220.980 212.736,220.800 213.197,220.800 213.624 C 220.800 214.051,220.620 214.400,220.400 214.400 C 220.180 214.400,220.000 214.940,220.000 215.600 C 220.000 216.260,219.820 216.800,219.600 216.800 C 219.380 216.800,219.200 217.419,219.200 218.176 C 219.200 218.933,219.020 219.664,218.800 219.800 C 218.580 219.936,218.400 220.937,218.400 222.024 C 218.400 223.111,218.220 224.000,218.000 224.000 C 217.735 224.000,217.600 245.059,217.600 286.376 C 217.600 327.529,217.736 348.837,218.000 349.000 C 218.220 349.136,218.400 350.126,218.400 351.200 C 218.400 352.274,218.580 353.264,218.800 353.400 C 219.020 353.536,219.200 354.177,219.200 354.824 C 219.200 355.471,219.380 356.000,219.600 356.000 C 219.820 356.000,220.000 356.450,220.000 357.000 C 220.000 357.550,220.180 358.000,220.400 358.000 C 220.620 358.000,220.800 358.540,220.800 359.200 C 220.800 359.860,220.980 360.400,221.200 360.400 C 221.420 360.400,221.600 360.760,221.600 361.200 C 221.600 361.640,221.780 362.000,222.000 362.000 C 222.220 362.000,222.400 362.360,222.400 362.800 C 222.400 363.240,222.580 363.600,222.800 363.600 C 223.020 363.600,223.200 363.920,223.200 364.312 C 223.200 364.703,223.560 365.283,224.000 365.600 C 224.440 365.917,224.800 366.409,224.800 366.692 C 224.800 367.562,227.620 371.299,229.710 373.200 C 230.798 374.190,232.474 375.765,233.434 376.700 C 234.394 377.635,235.414 378.400,235.701 378.400 C 235.988 378.400,236.483 378.760,236.800 379.200 C 237.117 379.640,237.657 380.000,238.000 380.000 C 238.343 380.000,238.883 380.360,239.200 380.800 C 239.517 381.240,240.097 381.600,240.488 381.600 C 240.880 381.600,241.200 381.780,241.200 382.000 C 241.200 382.220,241.560 382.400,242.000 382.400 C 242.440 382.400,242.800 382.580,242.800 382.800 C 242.800 383.020,243.160 383.200,243.600 383.200 C 244.040 383.200,244.400 383.380,244.400 383.600 C 244.400 383.820,244.850 384.000,245.400 384.000 C 245.950 384.000,246.400 384.180,246.400 384.400 C 246.400 384.620,246.940 384.800,247.600 384.800 C 248.260 384.800,248.800 384.980,248.800 385.200 C 248.800 385.420,249.520 385.600,250.400 385.600 C 251.280 385.600,252.000 385.780,252.000 386.000 C 252.000 386.220,252.900 386.400,254.000 386.400 C 255.100 386.400,256.000 386.580,256.000 386.800 C 256.000 387.062,263.725 387.200,278.376 387.200 C 292.863 387.200,300.840 387.059,301.000 386.800 C 301.136 386.580,302.137 386.400,303.224 386.400 C 304.311 386.400,305.200 386.220,305.200 386.000 C 305.200 385.780,305.830 385.600,306.600 385.600 C 307.370 385.600,308.000 385.420,308.000 385.200 C 308.000 384.980,308.540 384.800,309.200 384.800 C 309.860 384.800,310.400 384.620,310.400 384.400 C 310.400 384.180,310.760 384.000,311.200 384.000 C 311.640 384.000,312.000 383.820,312.000 383.600 C 312.000 383.380,312.343 383.200,312.762 383.200 C 313.669 383.200,316.800 381.592,316.800 381.126 C 316.800 380.947,317.160 380.800,317.600 380.800 C 318.040 380.800,318.400 380.620,318.400 380.400 C 318.400 380.180,318.643 380.000,318.941 380.000 C 319.238 380.000,320.046 379.460,320.737 378.800 C 321.428 378.140,322.129 377.599,322.296 377.598 C 322.874 377.593,329.200 371.167,329.200 370.585 C 329.200 370.263,329.380 370.000,329.600 370.000 C 329.820 370.000,330.000 369.651,330.000 369.224 C 330.000 368.797,330.180 368.336,330.400 368.200 C 330.627 368.060,330.800 366.063,330.800 363.576 C 330.800 360.925,330.642 359.200,330.400 359.200 C 330.180 359.200,330.000 358.784,330.000 358.275 C 330.000 357.767,329.685 357.002,329.300 356.575 C 328.915 356.149,328.346 355.307,328.035 354.705 C 327.724 354.102,326.959 353.383,326.335 353.107 C 325.711 352.831,325.200 352.469,325.200 352.302 C 325.200 352.136,324.930 352.000,324.600 352.000 C 324.270 352.000,324.000 351.820,324.000 351.600 C 324.000 351.380,323.651 351.200,323.224 351.200 C 322.797 351.200,322.336 351.020,322.200 350.800 C 322.061 350.575,320.129 350.400,317.776 350.400 C 315.259 350.400,313.600 350.559,313.600 350.800 C 313.600 351.020,313.184 351.200,312.675 351.200 C 312.167 351.200,311.364 351.560,310.892 352.000 C 310.420 352.440,309.926 352.800,309.795 352.800 C 309.663 352.800,308.496 353.880,307.200 355.200 C 305.904 356.520,304.564 357.600,304.222 357.600 C 303.880 357.600,303.600 357.759,303.600 357.953 C 303.600 358.148,303.195 358.399,302.700 358.513 C 301.578 358.770,299.227 359.594,298.305 360.054 C 297.380 360.515,259.386 360.502,258.495 360.040 C 258.113 359.842,256.765 359.355,255.500 358.957 C 254.235 358.560,253.200 358.092,253.200 357.917 C 253.200 357.743,253.008 357.600,252.773 357.600 C 252.144 357.600,246.400 351.614,246.400 350.959 C 246.400 350.652,246.220 350.400,246.000 350.400 C 245.780 350.400,245.600 350.051,245.600 349.624 C 245.600 349.197,245.420 348.736,245.200 348.600 C 244.980 348.464,244.800 347.823,244.800 347.176 C 244.800 346.529,244.620 346.000,244.400 346.000 C 244.135 346.000,244.000 325.867,244.000 286.400 C 244.000 246.933,244.135 226.800,244.400 226.800 C 244.620 226.800,244.800 226.260,244.800 225.600 C 244.800 224.940,244.980 224.400,245.200 224.400 C 245.420 224.400,245.600 224.040,245.600 223.600 C 245.600 223.160,245.780 222.800,246.000 222.800 C 246.220 222.800,246.400 222.530,246.400 222.200 C 246.400 221.870,246.580 221.600,246.800 221.600 C 247.020 221.600,247.200 221.316,247.200 220.969 C 247.200 220.203,252.270 215.200,253.046 215.200 C 253.351 215.200,253.600 215.020,253.600 214.800 C 253.600 214.580,253.960 214.400,254.400 214.400 C 254.840 214.400,255.200 214.220,255.200 214.000 C 255.200 213.780,255.560 213.600,256.000 213.600 C 256.440 213.600,256.800 213.420,256.800 213.200 C 256.800 212.980,257.610 212.800,258.600 212.800 C 259.590 212.800,260.400 212.620,260.400 212.400 C 260.400 212.139,266.667 212.000,278.400 212.000 C 290.133 212.000,296.400 212.139,296.400 212.400 C 296.400 212.620,297.120 212.800,298.000 212.800 C 298.880 212.800,299.600 212.980,299.600 213.200 C 299.600 213.420,300.140 213.600,300.800 213.600 C 301.460 213.600,302.000 213.780,302.000 214.000 C 302.000 214.220,302.320 214.400,302.712 214.400 C 303.103 214.400,303.683 214.760,304.000 215.200 C 304.317 215.640,304.790 216.000,305.051 216.000 C 305.312 216.000,306.668 217.141,308.063 218.535 C 311.343 221.813,313.127 222.633,317.941 223.080 C 319.228 223.200,320.256 223.104,320.521 222.839 C 320.762 222.598,321.369 222.400,321.868 222.400 C 324.315 222.400,330.000 217.231,330.000 215.005 C 330.000 214.672,330.180 214.400,330.400 214.400 C 330.620 214.400,330.800 213.716,330.800 212.880 C 330.800 212.044,330.996 211.164,331.235 210.925 C 331.548 210.612,331.548 210.415,331.235 210.222 C 330.989 210.070,330.800 208.744,330.800 207.176 C 330.800 205.592,330.628 204.400,330.400 204.400 C 330.180 204.400,330.000 204.040,330.000 203.600 C 330.000 203.160,329.850 202.800,329.668 202.800 C 329.485 202.800,329.080 202.308,328.768 201.706 C 328.189 200.590,324.231 196.400,323.756 196.400 C 323.612 196.400,323.203 196.071,322.847 195.669 C 321.964 194.671,317.930 192.000,317.305 192.000 C 317.027 192.000,316.800 191.820,316.800 191.600 C 316.800 191.380,316.440 191.200,316.000 191.200 C 315.560 191.200,315.200 191.020,315.200 190.800 C 315.200 190.580,314.840 190.400,314.400 190.400 C 313.960 190.400,313.600 190.220,313.600 190.000 C 313.600 189.780,313.240 189.600,312.800 189.600 C 312.360 189.600,312.000 189.420,312.000 189.200 C 312.000 188.980,311.460 188.800,310.800 188.800 C 310.140 188.800,309.600 188.620,309.600 188.400 C 309.600 188.180,309.060 188.000,308.400 188.000 C 307.740 188.000,307.200 187.820,307.200 187.600 C 307.200 187.380,306.570 187.200,305.800 187.200 C 305.030 187.200,304.400 187.020,304.400 186.800 C 304.400 186.571,303.200 186.400,301.600 186.400 C 300.000 186.400,298.800 186.229,298.800 186.000 C 298.800 185.739,291.808 185.600,278.624 185.600 C 265.604 185.600,258.360 185.742,258.200 186.000 M170.200 224.400 C 170.056 224.633,167.664 224.812,164.476 224.828 C 159.136 224.855,153.283 225.244,146.400 226.029 C 144.530 226.242,141.920 226.510,140.600 226.625 C 139.280 226.739,137.840 226.998,137.400 227.199 C 136.960 227.400,135.610 227.656,134.400 227.769 C 130.139 228.165,128.196 228.481,127.820 228.839 C 127.611 229.037,126.587 229.200,125.544 229.200 C 124.501 229.200,123.536 229.380,123.400 229.600 C 123.264 229.820,122.364 230.000,121.400 230.000 C 120.436 230.000,119.536 230.180,119.400 230.400 C 119.264 230.620,118.443 230.800,117.576 230.800 C 116.709 230.800,116.000 230.980,116.000 231.200 C 116.000 231.420,115.201 231.600,114.224 231.600 C 113.247 231.600,112.336 231.780,112.200 232.000 C 112.064 232.220,111.333 232.400,110.576 232.400 C 109.819 232.400,109.200 232.580,109.200 232.800 C 109.200 233.020,108.480 233.200,107.600 233.200 C 106.720 233.200,106.000 233.380,106.000 233.600 C 106.000 233.820,105.280 234.000,104.400 234.000 C 103.520 234.000,102.800 234.180,102.800 234.400 C 102.800 234.620,102.080 234.800,101.200 234.800 C 100.320 234.800,99.600 234.980,99.600 235.200 C 99.600 235.420,99.060 235.600,98.400 235.600 C 97.740 235.600,97.200 235.780,97.200 236.000 C 97.200 236.220,96.581 236.400,95.824 236.400 C 95.067 236.400,94.336 236.580,94.200 236.800 C 94.064 237.020,93.513 237.200,92.976 237.200 C 92.439 237.200,92.000 237.380,92.000 237.600 C 92.000 237.820,91.460 238.000,90.800 238.000 C 90.140 238.000,89.600 238.180,89.600 238.400 C 89.600 238.620,88.981 238.800,88.224 238.800 C 87.467 238.800,86.736 238.980,86.600 239.200 C 86.464 239.420,85.924 239.600,85.400 239.600 C 84.876 239.600,84.336 239.780,84.200 240.000 C 84.064 240.220,83.423 240.400,82.776 240.400 C 82.129 240.400,81.600 240.580,81.600 240.800 C 81.600 241.020,81.161 241.200,80.624 241.200 C 80.087 241.200,79.546 241.364,79.422 241.565 C 79.297 241.766,78.478 242.052,77.600 242.200 C 76.722 242.348,75.903 242.634,75.778 242.835 C 75.654 243.036,75.124 243.200,74.600 243.200 C 74.076 243.200,73.558 243.344,73.449 243.521 C 73.340 243.697,72.339 244.090,71.225 244.393 C 70.111 244.696,69.200 245.092,69.200 245.272 C 69.200 245.453,68.761 245.600,68.224 245.600 C 67.687 245.600,67.136 245.780,67.000 246.000 C 66.864 246.220,66.403 246.400,65.976 246.400 C 65.549 246.400,65.200 246.580,65.200 246.800 C 65.200 247.020,64.761 247.200,64.224 247.200 C 63.687 247.200,63.136 247.380,63.000 247.600 C 62.864 247.820,62.403 248.000,61.976 248.000 C 61.549 248.000,61.200 248.180,61.200 248.400 C 61.200 248.620,60.840 248.800,60.400 248.800 C 59.960 248.800,59.600 248.980,59.600 249.200 C 59.600 249.420,59.150 249.600,58.600 249.600 C 58.050 249.600,57.600 249.780,57.600 250.000 C 57.600 250.220,57.240 250.400,56.800 250.400 C 56.360 250.400,56.000 250.580,56.000 250.800 C 56.000 251.020,55.640 251.200,55.200 251.200 C 54.760 251.200,54.400 251.380,54.400 251.600 C 54.400 251.820,53.961 252.000,53.424 252.000 C 52.887 252.000,52.336 252.180,52.200 252.400 C 52.064 252.620,51.603 252.800,51.176 252.800 C 50.749 252.800,50.400 252.980,50.400 253.200 C 50.400 253.420,50.040 253.600,49.600 253.600 C 49.160 253.600,48.800 253.780,48.800 254.000 C 48.800 254.220,48.440 254.400,48.000 254.400 C 47.560 254.400,47.200 254.580,47.200 254.800 C 47.200 255.020,46.840 255.200,46.400 255.200 C 45.960 255.200,45.600 255.380,45.600 255.600 C 45.600 255.820,45.240 256.000,44.800 256.000 C 44.360 256.000,44.000 256.146,44.000 256.325 C 44.000 256.504,43.370 256.898,42.600 257.200 C 41.830 257.502,41.200 257.896,41.200 258.075 C 41.200 258.254,40.910 258.400,40.555 258.400 C 39.584 258.400,32.774 261.907,31.990 262.811 C 31.614 263.245,31.137 263.600,30.931 263.600 C 29.821 263.600,24.800 269.657,24.800 270.996 C 24.800 271.328,24.620 271.600,24.400 271.600 C 24.180 271.600,24.000 271.960,24.000 272.400 C 24.000 272.840,23.820 273.200,23.600 273.200 C 23.380 273.200,23.200 273.560,23.200 274.000 C 23.200 274.440,23.020 274.800,22.800 274.800 C 22.580 274.800,22.400 275.160,22.400 275.600 C 22.400 276.040,22.220 276.400,22.000 276.400 C 21.780 276.400,21.600 277.030,21.600 277.800 C 21.600 278.570,21.420 279.200,21.200 279.200 C 20.647 279.200,20.647 353.458,21.200 353.800 C 21.420 353.936,21.600 354.667,21.600 355.424 C 21.600 356.181,21.780 356.800,22.000 356.800 C 22.220 356.800,22.400 357.250,22.400 357.800 C 22.400 358.350,22.580 358.800,22.800 358.800 C 23.020 358.800,23.200 359.160,23.200 359.600 C 23.200 360.040,23.380 360.400,23.600 360.400 C 23.820 360.400,24.000 360.760,24.000 361.200 C 24.000 361.640,24.180 362.000,24.400 362.000 C 24.620 362.000,24.800 362.270,24.800 362.599 C 24.800 363.942,30.584 370.800,31.717 370.800 C 31.931 370.800,32.399 371.115,32.757 371.500 C 34.012 372.849,38.740 375.200,40.198 375.200 C 40.749 375.200,41.200 375.380,41.200 375.600 C 41.200 375.820,41.909 376.000,42.776 376.000 C 43.643 376.000,44.464 376.180,44.600 376.400 C 44.763 376.664,71.604 376.800,123.824 376.800 L 202.800 376.800 202.800 375.800 C 202.800 375.250,202.620 374.800,202.400 374.800 C 202.180 374.800,202.000 374.440,202.000 374.000 C 202.000 373.560,201.820 373.200,201.600 373.200 C 201.380 373.200,201.200 372.840,201.200 372.400 C 201.200 371.960,201.020 371.600,200.800 371.600 C 200.580 371.600,200.400 371.240,200.400 370.800 C 200.400 370.360,200.220 370.000,200.000 370.000 C 199.780 370.000,199.600 369.561,199.600 369.024 C 199.600 368.487,199.420 367.936,199.200 367.800 C 198.980 367.664,198.800 367.203,198.800 366.776 C 198.800 366.349,198.620 366.000,198.400 366.000 C 198.180 366.000,198.000 365.460,198.000 364.800 C 198.000 364.140,197.820 363.600,197.600 363.600 C 197.380 363.600,197.200 363.060,197.200 362.400 C 197.200 361.740,197.020 361.200,196.800 361.200 C 196.580 361.200,196.400 360.570,196.400 359.800 C 196.400 359.030,196.220 358.400,196.000 358.400 C 195.780 358.400,195.600 357.680,195.600 356.800 C 195.600 355.920,195.420 355.200,195.200 355.200 C 194.978 355.200,194.800 354.133,194.800 352.800 C 194.800 351.467,194.622 350.400,194.400 350.400 C 194.135 350.400,194.000 329.067,194.000 287.200 L 194.000 224.000 182.224 224.000 C 174.804 224.000,170.356 224.148,170.200 224.400 M328.400 240.800 C 328.400 241.020,327.950 241.200,327.400 241.200 C 326.850 241.200,326.400 241.368,326.400 241.573 C 326.400 241.778,326.049 242.057,325.620 242.194 C 324.807 242.452,322.400 244.532,322.400 244.977 C 322.400 245.118,322.040 245.620,321.600 246.092 C 321.160 246.564,320.800 247.367,320.800 247.875 C 320.800 248.384,320.620 248.800,320.400 248.800 C 320.158 248.800,320.000 250.533,320.000 253.200 C 320.000 255.867,320.158 257.600,320.400 257.600 C 320.620 257.600,320.800 258.050,320.800 258.600 C 320.800 259.150,320.980 259.600,321.200 259.600 C 321.420 259.600,321.600 259.863,321.600 260.185 C 321.600 260.805,323.485 262.915,329.500 269.029 C 331.535 271.097,333.200 272.882,333.200 272.995 C 333.200 273.108,319.340 273.200,302.400 273.200 C 282.133 273.200,271.600 273.337,271.600 273.600 C 271.600 273.820,271.060 274.000,270.400 274.000 C 269.740 274.000,269.200 274.180,269.200 274.400 C 269.200 274.620,268.876 274.800,268.480 274.800 C 266.473 274.800,262.000 279.491,262.000 281.595 C 262.000 282.038,261.820 282.400,261.600 282.400 C 261.360 282.400,261.200 283.992,261.200 286.376 C 261.200 288.596,261.377 290.462,261.600 290.600 C 261.820 290.736,262.000 291.197,262.000 291.624 C 262.000 292.051,262.180 292.400,262.400 292.400 C 262.620 292.400,262.800 292.674,262.800 293.009 C 262.800 293.801,266.999 298.000,267.791 298.000 C 268.126 298.000,268.400 298.180,268.400 298.400 C 268.400 298.620,268.749 298.800,269.176 298.800 C 269.603 298.800,270.064 298.980,270.200 299.200 C 270.361 299.461,281.337 299.600,301.824 299.600 C 319.081 299.600,333.200 299.693,333.200 299.806 C 333.200 299.920,331.895 301.340,330.300 302.961 C 325.575 307.764,322.400 311.157,322.400 311.403 C 322.400 311.530,322.040 312.020,321.600 312.492 C 321.160 312.964,320.800 313.767,320.800 314.275 C 320.800 314.784,320.620 315.200,320.400 315.200 C 320.158 315.200,320.000 316.933,320.000 319.600 C 320.000 322.267,320.158 324.000,320.400 324.000 C 320.620 324.000,320.800 324.450,320.800 325.000 C 320.800 325.550,320.980 326.000,321.200 326.000 C 321.420 326.000,321.600 326.275,321.600 326.611 C 321.600 328.448,327.360 332.400,330.038 332.400 C 330.897 332.400,331.600 332.580,331.600 332.800 C 331.600 333.020,332.140 333.200,332.800 333.200 C 333.460 333.200,334.000 333.020,334.000 332.800 C 334.000 332.580,334.900 332.400,336.000 332.400 C 337.100 332.400,338.000 332.220,338.000 332.000 C 338.000 331.780,338.360 331.600,338.800 331.600 C 339.240 331.600,339.600 331.420,339.600 331.200 C 339.600 330.980,339.792 330.800,340.027 330.800 C 340.479 330.800,343.837 327.599,352.565 318.851 C 358.464 312.938,360.789 310.612,369.251 302.158 C 376.782 294.634,377.600 293.738,377.600 293.011 C 377.600 292.675,377.780 292.400,378.000 292.400 C 378.220 292.400,378.400 291.950,378.400 291.400 C 378.400 290.850,378.580 290.400,378.800 290.400 C 379.040 290.400,379.200 288.800,379.200 286.400 C 379.200 284.000,379.040 282.400,378.800 282.400 C 378.580 282.400,378.400 281.860,378.400 281.200 C 378.400 280.540,378.220 280.000,378.000 280.000 C 377.780 280.000,377.600 279.730,377.600 279.400 C 377.600 279.070,377.420 278.800,377.200 278.800 C 376.980 278.800,376.800 278.619,376.800 278.397 C 376.800 277.752,340.838 242.000,340.189 242.000 C 339.865 242.000,339.600 241.820,339.600 241.600 C 339.600 241.380,339.060 241.200,338.400 241.200 C 337.740 241.200,337.200 241.020,337.200 240.800 C 337.200 240.558,335.467 240.400,332.800 240.400 C 330.133 240.400,328.400 240.558,328.400 240.800 " stroke="none" fill="#049c54" fill-rule="evenodd"></path><path id="path1" d="" stroke="none" fill="#089c54" fill-rule="evenodd"></path><path id="path2" d="" stroke="none" fill="#089c54" fill-rule="evenodd"></path><path id="path3" d="" stroke="none" fill="#089c54" fill-rule="evenodd"></path><path id="path4" d="" stroke="none" fill="#089c54" fill-rule="evenodd"></path></g></svg>